<?xml version="1.0" standalone="no"?>
<!DOCTYPE svg PUBLIC "-//W3C//DTD SVG 1.1//EN" "http://www.w3.org/Graphics/SVG/1.1/DTD/svg11.dtd" >
<!--
2013-9-30: Created.
-->
<svg>
<metadata>
Created by iconfont
</metadata>
<defs>

<font id="iconfont" horiz-adv-x="1024" >
  <font-face
    font-family="iconfont"
    font-weight="500"
    font-stretch="normal"
    units-per-em="1024"
    ascent="896"
    descent="-128"
  />
    <missing-glyph />
    
    <glyph glyph-name="vip" unicode="&#58924;" d="M1152 535.52c-10.24 5.12-35.84 5.12-66.56 5.12l-138.24 0 0-225.28 138.24 0c46.08 0 81.92 10.24 97.28 30.72 20.48 20.48 30.72 46.08 30.72 87.04 0 25.6-5.12 51.2-15.36 66.56C1187.84 515.04 1172.48 530.4 1152 535.52L1152 535.52zM1269.76 801.76 112.64 801.76C51.2 801.76 0 740.32 0 663.52l0-721.92c0-76.8 51.2-138.24 112.64-138.24l1162.24 0c61.44 0 112.64 61.44 112.64 138.24L1387.52 663.52C1382.4 740.32 1331.2 801.76 1269.76 801.76L1269.76 801.76zM389.12-17.44 312.32-17.44 102.4 617.44l76.8 0 143.36-460.8c10.24-35.84 20.48-71.68 30.72-102.4 10.24 35.84 20.48 71.68 30.72 102.4l148.48 460.8 71.68 0L389.12-17.44 389.12-17.44zM747.52-17.44l-71.68 0L675.84 617.44l71.68 0L747.52-17.44 747.52-17.44zM1244.16 294.88c-30.72-35.84-81.92-56.32-158.72-56.32l-138.24 0 0-256-71.68 0L875.52 617.44l204.8 0c35.84 0 61.44 0 81.92-5.12 25.6-5.12 51.2-15.36 66.56-30.72 20.48-15.36 30.72-35.84 46.08-61.44 10.24-25.6 15.36-56.32 15.36-87.04C1290.24 376.8 1274.88 330.72 1244.16 294.88L1244.16 294.88zM1198.08 294.88"  horiz-adv-x="1388" />

    
    <glyph glyph-name="wifiwofi" unicode="&#59143;" d="M512 56.8m-81.024 0a1.266 1.266 0 1 0 162.048 0 1.266 1.266 0 1 0-162.048 0ZM512 300C433.984 300 364.736 263.136 320.192 205.92l42.688-33.216C397.44 217.248 451.264 245.856 512 245.856s114.496-28.608 149.248-73.152l42.56 33.216C659.264 263.136 590.016 300 512 300zM512 624.224c-182.08 0-343.744-86.144-447.552-219.456l43.648-33.92C201.856 491.168 347.712 568.864 512 568.864c164.224 0 310.144-77.696 403.904-198.016l43.712 33.984C855.68 538.144 694.08 624.224 512 624.224zM512 462.112c-130.048 0-245.504-61.44-319.616-156.672l42.624-33.216C299.264 354.72 399.296 408.096 512 408.096s212.672-53.376 277.056-135.872l42.56 33.216C757.504 400.608 642.048 462.112 512 462.112z"  horiz-adv-x="1024" />

    
    <glyph glyph-name="weibiaoti1" unicode="&#58975;" d="M511.829 894c-281.366 0-509.461-228.089-509.461-509.453 0-281.388 228.095-509.477 509.461-509.477 281.374 0 509.469 228.089 509.469 509.477-0.012 281.364-228.095 509.453-509.469 509.453v0 0zM721.987 266.866c0-14.631-13.023-29.557-35.677-29.557l-124.753 0.388v-102.092c0-22.649-21.095-45.691-43.758-45.691-22.653 0-43.75 23.041-43.75 45.691l0 102.092-124.668-0.388c-22.641 0-35.762 9.037-35.762 44.142 0 14.579 6.516 29.169 29.169 29.169h131.261v72.923h-131.261c-22.643 0-29.169 16.978-29.169 29.169 0 22.671 6.516 43.754 29.169 43.754h102.092l-114.62 135.449c-14.703 17.196-12.703 43.301 4.504 58.025v0c17.206 14.713 43.295 12.715 58.019-4.504l125.11-145.85 125.112 145.85c14.735 17.218 40.823 19.216 58.019 4.504v0c17.216-14.725 19.218-40.829 4.494-58.025l-114.792-135.448h102.092c22.653 0 29.169-18.022 29.169-29.169 0-22.637-6.516-43.754-29.169-43.754h-131.261v-72.923h131.261c0-0.001 29.169 2.202 29.169-43.755z"  horiz-adv-x="1024" />

    
    <glyph glyph-name="xiazai44" unicode="&#58905;" d="M805.695-77.009c-1.963 0-3.541 0.054-4.672 0.111L203.268-76.898c-40.042 0-63.091 16.865-75.375 31.013-26.919 31.003-24.757 73.037-23.543 84.7l0 359.53 64 0 0-363.913-0.302-1.883c-0.761-6.401-0.833-26.277 8.289-36.609 1.93-2.186 7.803-8.838 26.932-8.838l600.308 0 0.75-0.082c2.153-0.076 22.315-0.434 34.996 11.557 8.454 7.994 12.74 21.212 12.74 39.288L852.063 398.621l64 0 0-360.756c0-45.871-18.247-72.371-33.555-86.525C854.974-74.12 820.092-77.008 805.695-77.009zM136.349 368.312 38 368.312c-13.291 0-25.197 8.214-29.916 20.639-4.718 12.425-1.266 26.472 8.674 35.294l472.219 419.09c12.02 10.668 30.087 10.766 42.223 0.227l478.781-415.791c9.955-8.646 13.588-22.513 9.151-34.929s-16.035-20.84-29.216-21.219l-104.938-3.012c-0.313-0.01-0.624-0.014-0.936-0.014-17.247 0-31.471 13.729-31.97 31.082-0.507 17.666 13.403 32.398 31.069 32.905l22.931 0.658L510.448 776.821 122.266 432.312l14.083 0c17.673 0 32-14.327 32-32S154.022 368.312 136.349 368.312zM403-45.201c-14.912 0-27 12.088-27 27L376 207.645c0.002 4.866 1.234 24.9 20.021 43.995 22.8 23.173 61.458 34.923 114.901 34.923 52.638 0 90.876-11.911 113.652-35.403 19.225-19.828 20.464-40.706 20.426-46.244l0-222.25c0-14.912-12.088-27-27-27s-27 12.088-27 27L591 204.598c-0.179 1.167-1.308 6.104-8.017 11.541-7.569 6.134-26.997 16.424-72.062 16.424-52.272 0-70.848-13.145-76.408-18.795-2.73-2.775-3.876-5.136-4.357-6.627-0.073-0.225-0.123-0.411-0.157-0.549l0-224.793C430-33.113 417.912-45.201 403-45.201zM410 170 401-36 163-23 146 231 151 397 80 420 509 809 932 440 889 399 871 29 854-28 630-36 626 113 612 213 584 236 529 245 461 239 419 233Z"  horiz-adv-x="1024" />

    
    <glyph glyph-name="weixin" unicode="&#58906;" d="M511.9975 804.175c235.8 0 428.7375-192.925 428.7375-428.725 0-235.8125-192.9375-428.75-428.7375-428.75s-428.7375 192.9375-428.7375 428.75C83.2625 611.25 274.25 804.175 511.9975 804.175M511.9975 843.15c-259.1875 0-467.7125-208.525-467.7125-467.7 0-259.2125 208.525-467.7125 467.7125-467.7125 259.2 0 467.7125 208.5 467.7125 467.7125C979.71 634.625 769.235 843.15 511.9975 843.15L511.9975 843.15zM436.8125 649.875c-123.825 0-224.175-83.95-224.175-187.5 0-60.7 34.475-114.675 87.9875-148.925 0.6875-0.4375 2.0625-1.2875 2.0625-1.2875l-21.675-67.8625 81.0375 41.2875c0 0 2.5375-0.75 3.8125-1.1125 22.3-6.2 46.1375-9.5625 70.95-9.5625 5.0375 0 10.0625 0.2 15.05 0.475-4.6 14.25-7.125 29.2375-7.125 44.7375 0 94.5 91.45 171.15 204.1875 171.15 3.2 0 6.325-0.0625 9.45-0.2125C641.8475 581 548.9225 649.875 436.8125 649.875zM358.7875 496.475c-17.4 0-31.475 13.6625-31.475 30.475 0 16.85 14.075 30.475 31.475 30.475 17.4 0 31.5-13.625 31.5-30.475C390.2875 510.1375 376.1875 496.475 358.7875 496.475zM514.7975 496.475c-17.4 0-31.4625 13.6625-31.4625 30.475 0 16.85 14.0625 30.475 31.4625 30.475 17.3875 0 31.475-13.625 31.475-30.475C546.2725 510.1375 532.185 496.475 514.7975 496.475zM839.985 319.015c0 87.45-84.7875 158.3625-189.35 158.3625-104.6 0-189.4125-70.9125-189.4125-158.3625 0-87.475 84.8125-158.4 189.4125-158.4 20.95 0 41.0625 2.8375 59.8875 8.1125 1.1 0.2875 3.225 0.925 3.225 0.925l68.45-34.9-18.2875 57.3375c0 0 1.175 0.725 1.7375 1.0875C810.81 222.115 839.985 267.7025 839.985 319.015zM584.7225 347.79c-14.7 0-26.5875 11.5375-26.5875 25.7625 0 14.2 11.8875 25.725 26.5875 25.725s26.6125-11.525 26.6125-25.725C611.335 359.3275 599.4225 347.79 584.7225 347.79zM716.485 347.79c-14.675 0-26.5625 11.5375-26.5625 25.7625 0 14.2 11.8875 25.725 26.5625 25.725 14.725 0 26.6125-11.525 26.6125-25.725C743.0975 359.3275 731.21 347.79 716.485 347.79z"  horiz-adv-x="1024" />

    
    <glyph glyph-name="icon4" unicode="&#58907;" d="M686.184111 717.827041c-73.571622 0-137.337925-38.749536-174.123736-96.429213-36.886095 57.679677-100.647281 96.429213-174.122713 96.429213-114.675786 0-207.668737-92.897783-207.668737-207.573569 0-29.623691 4.611018-57.679677 15.790638-83.184561 77.006861-174.911682 208.065779-323.133491 366.000811-427.51277 157.839865 104.379279 288.899806 252.601088 365.976252 427.51277 11.18576 25.504884 15.69547 53.56087 15.69547 83.184561C893.732098 624.929258 800.858874 717.827041 686.184111 717.827041z"  horiz-adv-x="1024" />

    
    <glyph glyph-name="wodepingjia" unicode="&#59401;" d="M867.396289 758.692774 156.604734 758.692774c-50.167586 0-90.982154-40.814568-90.982154-90.983177l0-475.379964c0-50.166563 40.814568-90.981131 90.982154-90.981131l265.548982 0 88.675622-91.825358 88.948845 91.825358 267.617084 0c50.166563 0 90.981131 40.814568 90.981131 90.981131L958.376397 667.709597C958.37742 717.877183 917.562852 758.692774 867.396289 758.692774zM329.189418 384.732687c-27.269064 0-49.454342 22.185278-49.454342 49.454342s22.185278 49.454342 49.454342 49.454342 49.454342-22.185278 49.454342-49.454342S356.458481 384.732687 329.189418 384.732687zM505.07631 384.732687c-27.269064 0-49.454342 22.185278-49.454342 49.454342s22.185278 49.454342 49.454342 49.454342 49.454342-22.185278 49.454342-49.454342S532.345374 384.732687 505.07631 384.732687zM683.914418 384.732687c-27.269064 0-49.454342 22.185278-49.454342 49.454342s22.185278 49.454342 49.454342 49.454342 49.454342-22.185278 49.454342-49.454342S711.183482 384.732687 683.914418 384.732687z"  horiz-adv-x="1024" />

    
    <glyph glyph-name="wode" unicode="&#58892;" d="M511.790222 834.308963c-246.920716 0-447.803909-200.883193-447.803909-447.803909 0-125.418454 53.093219-245.896386 145.623635-330.515622 82.512249-75.634608 189.831486-117.29852 302.180274-117.29852 111.692848 0 218.693838 41.345664 301.305347 116.443036 93.106538 84.718497 146.498562 205.495234 146.498562 331.370083C959.594131 633.425769 758.710938 834.308963 511.790222 834.308963zM511.790222-20.598898c-96.721879 0-189.330066 33.980929-262.572184 95.978958 55.116295 91.861174 154.071028 148.277068 261.975597 148.277068 108.276029 0 207.383234-56.698327 262.35422-148.997476C700.254571 13.124158 607.935979-20.598898 511.790222-20.598898zM348.355943 427.214221c0 89.786932 73.05076 162.837692 162.837692 162.837692 89.786932 0 162.837692-73.05076 162.837692-162.837692 0-89.797166-73.05076-162.847925-162.837692-162.847925C421.406702 264.367319 348.355943 337.417055 348.355943 427.214221zM803.959491 102.946906c-45.032636 71.482031-113.843838 123.124202-193.077414 146.853649 61.936631 34.94386 103.859439 101.371782 103.859439 177.413666 0 112.239294-91.317799 203.546859-203.546859 203.546859s-203.546859-91.307565-203.546859-203.546859c0-76.051093 41.933041-142.486178 103.881952-177.426969-78.916351-23.647583-147.553591-74.991971-192.623066-146.033981-72.863495 75.56093-114.209158 177.226401-114.209158 282.750759 0 224.468354 182.616154 407.094742 407.094742 407.094742s407.094742-182.626387 407.094742-407.094742C918.884964 280.570349 877.28245 178.600957 803.959491 102.946906z"  horiz-adv-x="1024" />

    
    <glyph glyph-name="zixun" unicode="&#59039;" d="M890.864282 449.521273C888.325459 656.731568 719.766462 823.96129 511.95037 823.96129c-207.819163 0-376.377136-167.230746-378.915959-374.440018-34.788318-27.79402-57.120952-70.487378-57.120952-118.471229 0-83.756589 67.908646-151.663188 151.663188-151.663188 36.550451 0 70.069869 12.94687 96.251158 34.465976l-71.453379 266.663362c-8.095375 1.328251-16.3422 2.200108-24.796756 2.200108-5.573949 0-11.051707-0.343831-16.47523-0.930185 18.277272 150.034085 145.863089 266.342044 300.846906 266.342044 154.963351 0 282.569634-116.307959 300.845882-266.342044-5.402033 0.586354-10.905374 0.930185-16.476253 0.930185-8.455579 0-16.718777-0.871857-24.814152-2.200108L700.067818 213.983815c20.207227-16.587793 44.781926-28.060079 71.738881-32.459273-35.775808-38.426171-81.274048-67.715241-132.74635-83.544765l-6.274914-6.277984c-16.056698 29.519314-46.959521 49.767474-82.923618 49.767474-52.362578 0-94.788853-42.432415-94.788853-94.792946 0-52.359508 42.426275-94.7909 94.788853-94.7909 42.980907 0 78.830393 28.779464 90.469478 67.962881 104.612593 25.653263 192.254675 94.511537 242.590084 186.817849 39.301098 27.39493 65.062831 72.853261 65.062831 124.382868C947.986257 379.015476 925.632133 421.7293 890.864282 449.521273L890.864282 449.521273z"  horiz-adv-x="1024" />

    
    <glyph glyph-name="home" unicode="&#58882;" d="M98.126 308.635h62.214v-320.076c0-62.993 44.15-85.331 81.947-85.331 2.438 0 4.372 0.103 5.228 0.182h171.402v339.724c0 5.785 4.502 9.959 5.206 10.354l176.53 0.207c1.828-1.122 5.045-8.225 5.135-11.364 0.298-9.729 0.066-240.524-0.007-311.024l-0.007-27.891h170.194c30.078 0 55.547 14.166 73.687 41.014 11.808 17.436 16.359 34.35 17.152 37.566l0.598 2.411 1.191 326.327h60.141c21.285 0 38.747 9.471 49.159 26.645 7.588 12.506 11.282 28.823 11.282 49.849v11.429l-8.114 8.117c-41.758 41.909-444.386 445.97-446.022 447.581-6.516 6.416-16.045 9.678-28.32 9.678-11.125 0-20.021-3.243-26.522-9.703l-444.652-453.703v-11.286c0-20.795 6.966-40.82 19.614-56.403 12.363-15.22 28.428-24.303 42.977-24.303zM929.811 366.495c-0.27-0.007-0.635-0.037-1.087-0.037h-116.285l-1.162-373.934c-2.935-8.955-12.986-33.418-35.324-33.418h-113.845c0.054 42.469 0.311 273.556-0.039 284.846-0.274 9.547-3.682 24.507-12.413 37.878-11.504 17.641-28.55 27.345-48.012 27.345h-177.525c-32.765 0-61.501-30.871-61.501-66.051v-284.016l-116.529 0.051-3.801-0.235c-22.572 0-25.62 14.971-25.62 29.627v375.773h-114.154c-2.695 2.207-7.17 7.23-9.349 15.050l414.549 423.036 424.554-426.050c-0.659-5.49-1.711-8.395-2.452-9.872z"  horiz-adv-x="1024" />

    
    <glyph glyph-name="infounttb" unicode="&#58898;" d="M968.654452 266.801548C994.403097 321.090065 1007.483871 378.797419 1007.483871 438.238968c0 59.425032-13.080774 117.099355-38.829419 171.420903-24.906323 52.537806-60.581161 99.740903-106.033548 140.271484-45.485419 40.580129-98.502194 72.472774-157.547355 94.736516C643.914323 867.773935 578.956387 879.483871 512 879.483871c-66.989419 0-131.963871-11.709935-193.090065-34.799484-59.045161-22.280258-112.061935-54.139871-157.563871-94.736516-45.419355-40.514065-81.11071-87.717161-106.017032-140.271484C29.580387 555.338323 16.516129 497.664 16.516129 438.238968c0-127.504516 61.869419-248.699871 169.736258-332.469677l6.722065-5.219097L192.974452-111.483871l297.984 108.477935L512-3.005935c66.956387 0 131.914323 11.709935 193.073548 34.766452 59.028645 22.296774 112.061935 54.156387 157.547355 94.769548C908.07329 167.093677 943.731613 214.263742 968.654452 266.801548zM832.346839 151.353806c-85.586581-76.387097-199.349677-118.420645-320.346839-118.420645l-29.530839 0L235.024516-57.162323 235.024516 117.165419l-7.531355 5.41729C120.121806 199.960774 58.549677 315.028645 58.549677 438.238968c0 108.411871 47.269161 210.316387 133.086968 286.901677C277.256258 801.478194 391.035871 843.544774 512 843.544774c120.980645 0 234.760258-42.066581 320.346839-118.404129 85.834323-76.58529 133.12-178.489806 133.12-286.901677C965.450323 329.777548 918.181161 227.906065 832.346839 151.353806zM298.595097 501.181935l456.951742 0c11.577806 0 21.025032 8.059871 21.025032 17.953032 0 9.926194-9.447226 17.969548-21.041548 17.969548L298.595097 537.104516c-11.594323 0-21.025032-8.043355-21.025032-17.969548C277.570065 509.241806 286.984258 501.181935 298.595097 501.181935zM298.595097 317.324387l335.343484 0c11.594323 0 21.008516 8.059871 21.008516 17.969548s-9.414194 17.936516-21.008516 17.936516L298.595097 353.230452c-11.594323 0-21.025032-8.026839-21.025032-17.936516S286.984258 317.324387 298.595097 317.324387z"  horiz-adv-x="1024" />

    
    <glyph glyph-name="diyongquan" unicode="&#58998;" d="M388.978276 120.411698C361.3335 120.411698 338.747897 98.074674 338.747897 70.33353 338.747897 42.772525 361.3335 20.255366 388.978276 20.255366 416.623055 20.255366 439.208658 42.772525 439.208658 70.33353 439.208658 98.074674 416.623055 120.411698 388.978276 120.411698L388.978276 120.411698ZM388.978276 333.153836C361.3335 333.153836 338.747897 310.636675 338.747897 283.075669 338.747897 255.334528 361.3335 232.997502 388.978276 232.997502 416.623055 232.997502 439.208658 255.334528 439.208658 283.075669 439.208658 310.636675 416.623055 333.153836 388.978276 333.153836L388.978276 333.153836ZM388.978276 558.325446C361.3335 558.325446 338.747897 535.808286 338.747897 508.247281 338.747897 480.506137 361.3335 458.169114 388.978276 458.169114 416.623055 458.169114 439.208658 480.506137 439.208658 508.247281 439.208658 535.808286 416.623055 558.325446 388.978276 558.325446L388.978276 558.325446ZM388.978276 770.887448C361.3335 770.887448 338.747897 748.550424 338.747897 720.809281 338.747897 693.248276 361.3335 670.911253 388.978276 670.911253 416.623055 670.911253 439.208658 693.248276 439.208658 720.809281 439.208658 748.550424 416.623055 770.887448 388.978276 770.887448L388.978276 770.887448ZM1204.589548 95.372615C1204.589548-15.231681 1114.60851-104.759914 1003.848715-104.759914L200.704697-104.759914C89.944903-104.759914-0.036137-15.231681-0.036137 95.372615L-0.036137 229.755031C59.589853 261.279058 100.424622 323.606559 100.424622 395.661474 100.424622 467.536252 59.589853 530.043892-0.036137 561.567917L-0.036137 695.770198C-0.036137 806.374493 89.944903 896.082863 200.704697 896.082863L1003.848715 896.082863C1114.60851 896.082863 1204.589548 806.374493 1204.589548 695.770198L1204.589548 561.567917C1144.963559 530.043892 1104.12879 467.536252 1104.12879 395.661474 1104.12879 323.606559 1144.963559 261.279058 1204.589548 229.755031L1204.589548 95.372615Z"  horiz-adv-x="1219" />

    
    <glyph glyph-name="erweima" unicode="&#58914;" d="M389.12 293.888l-163.84 0c-28.672 0-49.152-24.576-49.152-49.152l0-163.84c0-28.672 24.576-49.152 49.152-49.152l163.84 0c28.672 0 49.152 24.576 49.152 49.152l0 163.84C438.272 273.408 417.792 293.888 389.12 293.888zM397.312 80.896c0-4.096-4.096-8.192-8.192-8.192l-163.84 0c-4.096 0-8.192 4.096-8.192 8.192l0 163.84c0 4.096 4.096 8.192 8.192 8.192l163.84 0c4.096 0 8.192-4.096 8.192-8.192L397.312 80.896zM327.68 199.68 282.624 199.68c-8.192 0-12.288-8.192-12.288-12.288l0-45.056c0-8.192 8.192-12.288 12.288-12.288L327.68 130.048c8.192 0 12.288 8.192 12.288 12.288l0 45.056C344.064 191.488 335.872 199.68 327.68 199.68zM741.376 199.68 696.32 199.68c-8.192 0-12.288-8.192-12.288-12.288l0-45.056c0-8.192 8.192-12.288 12.288-12.288l45.056 0c8.192 0 12.288 8.192 12.288 12.288l0 45.056C753.664 191.488 749.568 199.68 741.376 199.68zM282.624 535.552 327.68 535.552c8.192 0 12.288 8.192 12.288 12.288L339.968 596.992C344.064 605.184 335.872 609.28 327.68 609.28L282.624 609.28C274.432 609.28 270.336 605.184 270.336 596.992l0-45.056C270.336 543.744 274.432 535.552 282.624 535.552zM741.376 609.28 696.32 609.28c-8.192 0-12.288-8.192-12.288-12.288l0-45.056c0-8.192 8.192-12.288 12.288-12.288l45.056 0c8.192 0 12.288 8.192 12.288 12.288L753.664 596.992C753.664 605.184 749.568 609.28 741.376 609.28zM225.28 441.344l163.84 0c28.672 0 49.152 24.576 49.152 49.152l0 163.84c0 28.672-24.576 49.152-49.152 49.152l-163.84 0c-28.672 0-49.152-24.576-49.152-49.152l0-163.84C172.032 461.824 196.608 441.344 225.28 441.344zM212.992 654.336c0 4.096 4.096 8.192 8.192 8.192l163.84 0c4.096 0 8.192-4.096 8.192-8.192l0-163.84c0-4.096-4.096-8.192-8.192-8.192l-163.84 0c-4.096 0-8.192 4.096-8.192 8.192L212.992 654.336zM798.72 293.888l-163.84 0c-28.672 0-49.152-24.576-49.152-49.152l0-163.84c0-28.672 24.576-49.152 49.152-49.152l163.84 0c28.672 0 49.152 24.576 49.152 49.152l0 163.84C851.968 273.408 827.392 293.888 798.72 293.888zM811.008 80.896c0-4.096-4.096-8.192-8.192-8.192l-163.84 0c-4.096 0-8.192 4.096-8.192 8.192l0 163.84c0 4.096 4.096 8.192 8.192 8.192l163.84 0c4.096 0 8.192-4.096 8.192-8.192L811.008 80.896zM798.72 707.584l-163.84 0c-28.672 0-49.152-24.576-49.152-49.152l0-163.84c0-28.672 24.576-49.152 49.152-49.152l163.84 0c28.672 0 49.152 24.576 49.152 49.152l0 163.84C851.968 683.008 827.392 707.584 798.72 707.584zM811.008 490.496c0-4.096-4.096-8.192-8.192-8.192l-163.84 0c-4.096 0-8.192 4.096-8.192 8.192l0 163.84c0 4.096 4.096 8.192 8.192 8.192l163.84 0c4.096 0 8.192-4.096 8.192-8.192L811.008 490.496zM512 564.224c12.288 0 20.48 8.192 20.48 20.48L532.48 687.104c0 12.288-8.192 20.48-20.48 20.48S491.52 695.296 491.52 687.104l0-102.4C491.52 572.416 499.712 564.224 512 564.224zM512 175.104c-12.288 0-20.48-8.192-20.48-20.48l0-102.4c0-12.288 8.192-20.48 20.48-20.48s20.48 8.192 20.48 20.48l0 102.4C532.48 162.816 524.288 175.104 512 175.104zM831.488 388.096l-102.4 0c-12.288 0-20.48-8.192-20.48-20.48s8.192-20.48 20.48-20.48l102.4 0c12.288 0 20.48 8.192 20.48 20.48S839.68 388.096 831.488 388.096zM671.744 367.616c0 12.288-8.192 20.48-20.48 20.48L532.48 388.096 532.48 506.88C532.48 519.168 524.288 527.36 512 527.36S491.52 519.168 491.52 506.88l0-118.784L393.216 388.096 372.736 388.096 192.512 388.096c-12.288 0-20.48-8.192-20.48-20.48s8.192-20.48 20.48-20.48l176.128 0 20.48 0L491.52 347.136l0-118.784c0-12.288 8.192-20.48 20.48-20.48s20.48 8.192 20.48 20.48l0 118.784 118.784 0C663.552 347.136 671.744 355.328 671.744 367.616z"  horiz-adv-x="1024" />

    
    <glyph glyph-name="fujin" unicode="&#58971;" d="M480.070358 183.41635c4.40056-4.912253 10.643214-7.470718 16.78353-7.470718 0.307016 0 0.614032 0 0.921047 0 0.307016 0 0.614032 0 0.921047 0 6.140316 0 12.280632 2.558465 16.78353 7.470718l171.621827 191.475515c80.642814 86.885469 54.648811 207.13332 53.523086 212.25025l-0.307016 1.125725c-29.1665 104.897062-98.142714 149.721367-150.847092 168.961023-27.222067 9.926844-52.704377 14.020388-72.148711 15.657805-1.023386 0.204677-2.149111 0.409354-3.172497 0.511693-0.71637 0.102339-6.652009 0.511693-16.271837 0.409354-9.619828 0.102339-15.555467-0.409354-16.271837-0.409354-1.125725-0.102339-2.149111-0.307016-3.172497-0.511693-19.444333-1.637418-45.028983-5.8333-72.148711-15.657805-52.704377-19.239656-121.680592-64.063962-150.847092-168.961023l-0.307016-1.125725c-1.125725-5.11693-27.222067-125.46712 53.523086-212.25025L480.070358 183.41635zM298.828703 576.805916c19.239656 68.464521 59.970418 114.721567 121.168899 137.440736 32.953028 12.280632 63.654607 14.327404 79.210074 14.532081 15.964821-0.307016 44.107935-2.763142 74.707176-13.918049 62.01719-22.61683 103.259644-68.976214 122.703978-138.054767 0.71637-3.684189 5.423946-28.552469 2.865481-60.686788-3.581851-44.824305-18.93264-82.075555-45.643014-110.730362l-0.102339-0.204677L497.774935 231.208475 341.810913 405.081751l-0.307016 0.307016c-26.710374 28.654807-42.061163 65.906056-45.643014 110.730362C293.404757 548.355787 298.112333 573.326404 298.828703 576.805916zM497.877274 433.941235c51.373976 0 93.128123 41.754148 93.128123 93.128123s-41.754148 93.128123-93.128123 93.128123-93.128123-41.754148-93.128123-93.128123S446.503298 433.941235 497.877274 433.941235zM497.877274 575.168499c26.505697 0 48.099141-21.593444 48.099141-48.099141s-21.593444-48.099141-48.099141-48.099141-48.099141 21.593444-48.099141 48.099141S471.371577 575.168499 497.877274 575.168499zM791.077354 189.96602l-0.511693 0.409354c-35.818509 33.362383-99.780132 50.657605-119.429143 56.286228-11.973616 3.377174-24.458925-3.479512-27.836098-15.453128-3.377174-11.973616 3.479512-24.458925 15.453128-27.836098 17.295223-5.014591 73.274435-20.365381 100.905856-45.745353 7.880072-7.880072 14.532081-19.649011 11.768939-28.45013-3.786528-12.280632-25.994004-26.505697-59.561063-32.85069l-0.102339 0c-0.102339 0-15.657805-2.967819-45.643014-6.037977-27.836098-2.865481-86.06676-6.242654-148.186288-6.754347-4.40056 0-9.722167 0-15.35079 0-24.04957 0-56.90026 0.102339-60.789127 0.204677-44.210274 0.71637-84.838697 2.967819-120.861883 6.652009-29.985209 3.070158-45.438337 6.037977-45.540676 6.037977l-0.102339 0c-33.56706 6.344993-55.774535 20.570058-59.561063 32.85069-2.660804 8.903458 3.991205 20.672397 11.768939 28.45013 27.529083 25.482311 83.610634 40.8331 100.905856 45.745353 11.973616 3.377174 18.830302 15.862483 15.453128 27.836098-3.377174 11.973616-15.862483 18.830302-27.836098 15.453128-19.546672-5.628623-83.508295-23.026184-119.429143-56.286228l-0.511693-0.409354c-17.090546-16.885868-32.236658-45.131321-23.537877-73.888467 9.210474-30.292225 40.935439-53.830102 94.151509-63.961623 1.637418-0.307016 18.21627-3.479512 49.634219-6.652009 37.251249-3.786528 79.210074-6.140316 124.648411-6.856686 3.888867-0.102339 30.087547-0.102339 61.403158-0.204677 3.581851 0 6.959025 0 10.029182 0 0.409354 0 0.921047 0 1.330402 0 0 0 0.102339 0 0.102339 0 1.330402 0 2.763142 0 4.093544 0 6.54967 0 11.257246 0 12.689986 0 0 0 0.102339 0 0.102339 0 1.125725 0 2.149111 0.102339 3.274835 0.204677 55.876874 0.921047 110.11633 4.195882 136.41735 6.856686 31.417949 3.172497 48.099141 6.344993 49.634219 6.652009 53.21607 10.029182 84.941035 33.669398 94.151509 63.961623C823.41635 144.834699 808.167899 173.080152 791.077354 189.96602z"  horiz-adv-x="1024" />

    
    <glyph glyph-name="shanganniu" unicode="&#58974;" d="M511.998465 542.168346 171.652963 126.17391c-3.803629-4.797259-9.076726-7.715729-14.913665-7.715729-11.584849 0-65.271586 11.866259-65.271586 26.498514 0 7.392364 2.376117 13.96199 6.180769 18.761296l399.50181 478.04363c3.803629 4.754281 9.075703 7.78122 14.84715 7.78122 5.835915 0 11.044544-2.937912 14.849196-7.78122l399.500786-478.04363c3.804652-4.799306 6.181793-11.368932 6.181793-18.761296 0-14.632255-53.68776-26.498514-65.272609-26.498514-5.834892 0-11.107989 2.918469-14.911618 7.715729L511.998465 542.168346z"  horiz-adv-x="1024" />

    
    <glyph glyph-name="qq" unicode="&#58940;" d="M512 888.360209C233.895539 888.360209 7.639791 662.104461 7.639791 384s226.255749-504.360209 504.360209-504.360209 504.360209 226.255749 504.360209 504.360209S790.109822 888.360209 512 888.360209zM512-83.394346c-257.720963 0-467.394346 209.673382-467.394346 467.394346S254.279037 851.394346 512 851.394346s467.394346-209.673382 467.394346-467.394346S769.720963-83.394346 512-83.394346zM659.279079 412.050094c2.364314 5.538178 8.122304 37.593131-14.105466 59.467058 0.037529 0.525403 0.037529 1.045445 0.037529 1.554764 0 86.284063-61.413194 148.388859-138.475895 148.673005-77.073424-0.284147-138.481257-62.388942-138.481257-148.673005 0-0.509319-0.005361-1.029361 0.032168-1.554764-22.22777-21.873927-16.459058-53.92888-14.105466-59.467058-17.027351-19.037822-46.508901-55.842848-49.704209-99.772984-0.579016-11.548147 1.211644-28.37177 6.851686-35.845361 6.873131-9.119497 25.744754 1.83355 39.233675 30.961257 3.75288-13.494283 12.41667-34.097592 32.028147-60.24444-32.81089-7.489675-42.171644-39.85022-31.132817-57.542366 7.784545-12.464921 25.610723-22.715644 56.325361-22.715644 54.652649 0 78.789026 14.689843 89.559791 24.913759 2.198115 2.230283 5.361257 3.307895 9.398283 3.313257 4.026304-0.005361 7.200168-1.082974 9.38756-3.313257 10.770764-10.229277 34.912503-24.913759 89.554429-24.913759 30.730723 0 48.540817 10.250723 56.325361 22.715644 11.038827 17.692147 1.683435 50.052691-31.116733 57.542366 19.606115 26.146848 28.275267 46.750157 32.028147 60.24444 13.494283-29.127707 32.360545-40.075393 39.239037-30.961257 5.634681 7.478953 7.42534 24.297215 6.835602 35.845361C705.79334 356.207246 676.317152 393.012272 659.279079 412.050094z"  horiz-adv-x="1024" />

    
    <glyph glyph-name="dianhua" unicode="&#58880;" d="M504.780575 249.005446c-1.049912 0.401136-144.016021 155.559938-144.858202 157.769256-31.918967 43.080168-59.886949 88.12713-28.129664 117.653607L125.313054 749.027647c-32.794917-37.978986-109.187795-222.164892 176.35659-540.859281C602.51655-127.721661 807.064202-67.054953 843.197144-32.161235L641.874953 187.158866C611.505271 158.992363 574.84635 186.706565 504.780575 249.005446zM923.366022 87.052914l0.008186 0.174985c0 0-157.096944 170.803107-157.179832 170.878832-12.42703 13.539364-33.104979 14.153348-46.456055 1.87265l-61.454654-57.193607L860.131839-17.12989c0 0 61.517075 57.017598 61.452607 57.092299l0.143263 0.096191C935.809425 53.166129 935.231257 74.029296 923.366022 87.052914zM410.085866 597.045187l0.005117 0.14224c14.087856 13.145391 13.609972 33.963533 1.77339 46.876634l0.008186 0.210801c0 0-161.626098 175.774329-161.695682 175.812191-12.45773 13.617136-33.154098 14.164604-46.451962 1.905396l-61.4567-57.222259 206.334345-224.774323C348.602559 539.99689 410.081773 596.94081 410.085866 597.045187z"  horiz-adv-x="1024" />

    
    <glyph glyph-name="sousuo" unicode="&#58881;" d="M872.058 30.431l-9.049-9.042c-4.997-4.997-16.79-1.309-26.335 8.244l-183.891 183.89c-0.031-0.027-0.065-0.050-0.096-0.077l-27.747 27.747c0.088 0.472-0.112 0.994 0.307 1.412l5.17 2.395c51.707 46.813 84.385 114.254 84.385 189.495 0 141.303-114.554 255.849-255.853 255.849-141.307 0-255.857-114.546-255.857-255.849 0-141.299 114.55-255.85 255.857-255.85 28.742 0 56.258 4.973 82.021 13.739l15.616-35.131c-30.564-10.838-63.339-16.986-97.637-16.986-162.499 0-294.231 131.732-294.231 294.227 0 162.503 131.732 294.235 294.231 294.235 162.496 0 294.231-131.732 294.231-294.235 0-74.338-27.789-142.040-73.264-193.835l183.898-183.887c9.541-9.552 13.237-21.344 8.244-26.341z"  horiz-adv-x="1024" />

    
    <glyph glyph-name="xialajiantou" unicode="&#58921;" d="M843.946667 610.133333L512 278.613333 180.053333 610.133333 119.893333 549.973333l331.946667-331.946666L512 157.866667l392.106667 392.106666-60.16 60.16z"  horiz-adv-x="1024" />

    
    <glyph glyph-name="daifukuan" unicode="&#58908;" d="M875.354839 317.935484H677.16129v-198.193549h198.193549V317.935484z m-49.548387-148.645161h-99.096775v99.096774h99.096775v-99.096774zM49.548387 747.354839v-726.709678h924.903226V747.354839H49.548387z m875.354839-677.161291H99.096774V433.548387h825.806452v-363.354839z m0 412.903226H99.096774v99.096774h825.806452v-99.096774z m0 148.645161H99.096774v66.064517h825.806452v-66.064517z"  horiz-adv-x="1024" />

    
    <glyph glyph-name="shezhi" unicode="&#59003;" d="M595.84-64H428.32A52.48 52.48 0 0 0 376-18.56l-13.2 92.16a340.16 340.16 0 0 0-46.08 26.64l-88.96-35.44a53.28 53.28 0 0 0-64.48 24L80 232a52.96 52.96 0 0 0 12.96 67.92l74.4 57.76c-0.8 9.52-1.2 18.16-1.2 26.4s0 16.96 1.2 26.4l-74.24 57.68A52.64 52.64 0 0 0 80 536l83.68 144a52.56 52.56 0 0 0 64.8 22.88l88-35.2a351.28 351.28 0 0 0 46 26.64l13.52 92.8A52.32 52.32 0 0 0 428.32 832h167.52A52.48 52.48 0 0 0 648 786.56l13.44-92.16a339.68 339.68 0 0 0 46.08-26.64l88.88 35.44a53.2 53.2 0 0 0 64.48-24L944 536a52.96 52.96 0 0 0-12.96-67.92l-74.4-57.76c0.72-8 1.2-17.04 1.2-26.48s-0.48-18.32-1.2-26.48l74.24-57.68a52.8 52.8 0 0 0 13.44-67.28L860.48 88a52.56 52.56 0 0 0-64.8-22.88l-88 35.2a351.04 351.04 0 0 0-46-26.64L648-19.12A52.32 52.32 0 0 0 595.84-64z m-11.2 53.92z m-145.2 0.48z m-1.36 9.6h148.08l17.04 118.4 16.96 6.88a288 288 0 0 1 64 36.8l14.32 10.72 112-44.56 74 127.2-94.8 73.6 2.24 18.08a253.76 253.76 0 0 1 0 73.6l-2.24 18.08 94.8 73.6L809.92 640l-112-44.64-14.4 11.04a272.64 272.64 0 0 1-63.44 36.56l-16.88 6.64L586.16 768H438.08l-17.12-118.4-16.96-6.88a288.56 288.56 0 0 1-64-36.8l-14.08-10.72L214.24 640l-74-127.2 94.8-73.6-2.24-18.08a293.04 293.04 0 0 1-2.72-36.8 293.04 293.04 0 0 1 2.72-36.8l2.24-18.08-94.8-73.6 74-127.84 112 44.64 14.4-11.04a272.8 272.8 0 0 1 63.44-36.56l16.96-6.88z m367.04 120v-0.48z m-586.32 0.56zM135.36 504zM805.2 648z m-585.84 0.64v-0.48zM584.72 778z m-145.12 0.56zM512 206.4A177.6 177.6 0 1 0 690.64 384 178.32 178.32 0 0 0 512 206.4z m0 291.2A113.6 113.6 0 1 1 626.64 384 114.24 114.24 0 0 1 512 497.6z"  horiz-adv-x="1024" />

    
    <glyph glyph-name="daishiyong" unicode="&#58883;" d="M146.147844 602.727738H438.443533a22.484284 22.484284 0 0 1 0 44.968567H146.147844a22.484284 22.484284 0 0 1 0-44.968567zM573.337752 400.369184a22.553183 22.553183 0 0 1-22.484284 22.484284H146.147844a22.484284 22.484284 0 0 1 0-44.968567h404.705624a22.553183 22.553183 0 0 1 22.484284 22.484283zM146.147844 197.976181a22.484284 22.484284 0 1 1 0-44.968568h359.74854a22.484284 22.484284 0 0 1 0 44.968568zM584.579894-49.798788H67.452851c-12.183772 0-22.484284 9.381849-22.484284 20.509157V830.533264c0 11.115826 10.334962 20.509158 22.484284 20.509158h663.274887v-161.225405h168.632128v-272.085097a22.484284 22.484284 0 1 1 44.968567 0V711.784552a64.788728 64.788728 0 0 1-21.301504 47.724558L792.611193 878.292272A68.382998 68.382998 0 0 1 746.43688 895.999506H67.452851C30.258472 895.999506 0 866.636731 0 830.544748v-859.834379c0-36.103467 30.258472-65.454759 67.452851-65.454758h517.127043a22.484284 22.484284 0 1 1 0 44.968567z m298.852647 784.584372h-107.736236V832.887339zM820.664873 366.654242c-136.375564 0-247.315638-110.951557-247.315638-247.315638s110.951557-247.315638 247.315638-247.315637 247.304154 110.928591 247.304154 247.304154-110.928591 247.327121-247.304154 247.327121z m0-449.674191c-111.571655 0-202.358554 90.775415-202.358554 202.358553s90.775415 202.358554 202.358554 202.358554 202.358554-90.775415 202.358553-202.358554-90.786898-202.370037-202.358553-202.370037zM955.570575 119.327121H820.664873V254.244307a22.484284 22.484284 0 0 1-44.968568 0v-157.40147a22.553183 22.553183 0 0 1 22.484284-22.484283h157.389986a22.484284 22.484284 0 0 1 0 44.968567z"  horiz-adv-x="1067" />

    
    <glyph glyph-name="huiyuanzhongxin" unicode="&#59027;" d="M1020.587 581.973c-10.24 30.72-40.96 51.2-71.68 44.374-30.72-6.827-54.614-34.134-51.2-68.267 0-17.067 10.24-30.72 20.48-44.373-3.414-3.414-6.827-3.414-10.24-6.827-61.44-37.547-122.88-75.093-180.907-112.64-17.067-10.24-20.48-6.827-30.72 6.827-37.547 71.68-78.507 143.36-116.053 215.04-13.654 27.306-27.307 51.2-40.96 75.093 44.373 30.72 51.2 68.267 23.893 102.4-23.893 27.307-68.267 30.72-95.573 6.827-13.654-13.654-20.48-30.72-20.48-47.787 0-27.307 17.066-44.373 40.96-58.027l-163.84-296.96c-6.827-10.24-13.654-10.24-23.894-6.826-17.066 10.24-37.546 20.48-54.613 34.133-47.787 27.307-95.573 58.027-143.36 85.333 6.827 10.24 6.827 10.24 10.24 13.654 17.067 20.48 20.48 47.786 10.24 71.68-10.24 23.893-37.547 37.546-61.44 34.133-27.307-3.413-51.2-20.48-58.027-44.373 0-3.414-3.413-6.827-3.413-10.24v-20.48c3.413-6.827 3.413-13.654 6.827-17.067 13.653-23.893 34.133-34.133 61.44-34.133 6.826-27.307 17.066-54.614 23.893-81.92 27.307-98.987 58.027-197.974 85.333-296.96 3.414-17.067 10.24-20.48 27.307-20.48h614.4c17.067 0 20.48 3.413 27.307 20.48 34.133 122.88 71.68 242.346 105.813 365.226 0 3.414 3.413 6.827 3.413 10.24 37.547 0 58.027 20.48 68.267 51.2v20.48c0 6.827-3.413 10.24-3.413 10.24zM798.72 39.253H228.693c-10.24 0-23.893-3.413-30.72-10.24-17.066-10.24-23.893-34.133-17.066-54.613 6.826-20.48 23.893-34.133 47.786-34.133h583.68c23.894 6.826 40.96 27.306 37.547 51.2-3.413 30.72-23.893 47.786-51.2 47.786z"  horiz-adv-x="1024" />

    
    <glyph glyph-name="faxian1" unicode="&#58888;" d="M467.916 555.486c28.131 15.805 38.17 51.55 22.37 79.687-15.805 28.137-51.55 38.17-79.692 22.37-28.137-15.805-38.171-51.555-22.364-79.686 15.799-28.137 51.545-38.175 79.687-22.37v0zM431.107 621.022c8.001 4.495 18.17 1.638 22.665-6.362 4.495-8.006 1.639-18.175-6.368-22.665-8.006-4.495-18.175-1.644-22.67 6.363-4.49 8.012-1.639 18.175 6.373 22.666v0zM413.958 219.798c45.46 25.532 61.668 83.285 36.143 128.74-25.537 45.45-83.291 61.664-128.746 36.127-45.45-25.532-61.664-83.285-36.133-128.735 25.532-45.455 83.28-61.664 128.735-36.133v0zM341.863 348.157c25.324 14.221 57.497 5.188 71.707-20.13 14.233-25.33 5.194-57.497-20.125-71.725s-57.492-5.194-71.713 20.137c-14.227 25.33-5.199 57.497 20.13 71.719v0zM678.915 426.101c25.859 14.538 35.094 47.415 20.562 73.285-14.532 25.887-47.415 35.11-73.291 20.578-25.876-14.538-35.11-47.421-20.578-73.291 14.538-25.865 47.415-35.105 73.309-20.573v0zM646.693 483.451c5.745 3.233 13.047 1.18 16.269-4.565 3.238-5.745 1.18-13.042-4.565-16.269-5.756-3.228-13.047-1.18-16.269 4.565-3.233 5.745-1.18 13.047 4.565 16.269v0zM902.033 742.099c-44.711 48.093-132.13 48.338-241.549 3.146 17.764-7.252 35.018-15.795 51.643-25.581 73.799 24.367 131.946 23.172 159.198-6.133 26.99-29.033 25.068-86.65-5.030-159.602-3.392-8.236-7.177-16.691-11.299-25.308-4.937 11.249-10.448 22.364-16.58 33.286-101.772 181.19-331.967 245.803-513.164 144.037-181.19-101.772-245.798-331.978-144.037-513.164 36.777-65.482 90.374-115.633 152.327-148.314-8.875-3.468-17.564-6.63-26.045-9.426-73.792-24.368-131.94-23.178-159.193 6.123-27.082 29.12-24.898 86.366 5.26 159.133-8.645 17.367-15.849 35.127-21.747 53.101-1.654-3.298-3.375-6.63-4.948-9.907-49.103-102.521-52.401-184.511-9.284-230.894 44.718-48.082 132.137-48.322 241.549-3.13 8.924 3.681 18.038 7.782 27.23 12.063 98.386-34.068 210.305-27.651 308.003 27.219 153.152 86.032 223.003 263.821 179.476 426.203 4.915 8.847 9.59 17.642 13.953 26.356 1.66 3.298 3.375 6.619 4.943 9.913 49.124 102.526 52.418 184.522 9.295 230.878v0zM217.727 213.29c-90.457 161.055-33.030 365.685 128.025 456.147 161.060 90.467 365.685 33.025 456.137-128.030 11.217-19.972 20.158-40.622 26.918-61.648-4.691-7.947-9.629-15.99-14.861-24.133-42.582-66.377-102.766-138.963-180.486-211.238-68.583-63.782-142.355-118.571-213.363-158.466-0.006 0-0.016-0.005-0.022-0.016-3.604-2.015-7.193-3.993-10.775-5.925-8.454-4.593-16.799-8.902-25.058-12.976-68.15 27.492-127.806 77.371-166.516 146.287v0zM673.869 85.276c-73.471-41.277-155.998-51.669-232.637-35.581 9.269 5.21 18.569 10.671 27.907 16.356 64.892 39.507 131.012 90.058 192.9 147.626 62.592 58.196 117.452 120.258 161.262 181.726 6.379 8.957 12.517 17.886 18.411 26.804 17.678-132.061-44.783-267.819-167.842-336.931v0z"  horiz-adv-x="1024" />

    
    <glyph glyph-name="xiaoxi" unicode="&#58932;" d="M511.171 831.952c-241.875 0-437.954-171.568-437.954-383.207 0-120.956 64.199-228.652 164.232-298.883v-193.819l191.863 116.424c26.547-4.4 53.851-6.932 81.858-6.932 241.875 0 437.955 171.566 437.955 383.21 0 211.639-196.08 383.207-437.954 383.207z m0-702.46c-23.07 0-47.093 2.043-71.403 6.072l-23.377 3.874-114.983-69.773V183.107L274.2 202.209c-87.082 61.137-137.026 150.996-137.026 246.536 0 176.035 167.774 319.25 373.997 319.25s373.997-143.215 373.997-319.25c0-176.037-167.774-319.253-373.998-319.253zM258.816 449.577a61.084 61.084 0 1 1 125.015 0 61.084 61.084 0 1 1-125.015 0zM450.942 449.577a61.084 61.084 0 1 1 125.016 0 61.084 61.084 0 1 1-125.016 0zM643.068 447.53a61.084 61.084 0 1 1 125.015 0 61.084 61.084 0 1 1-125.015 0z"  horiz-adv-x="1024" />

    
    <glyph glyph-name="dujia" unicode="&#58890;" d="M940.774076 665.991376C913.879524 728.611525 864.104534 777.048478 800.815367 802.337384c-63.289168 25.288906-132.733307 24.35228-195.353457-2.542271-36.662224-15.788841-68.37371-39.204495-93.528812-68.775121-25.155103 29.436822-56.866588 52.98628-93.528812 68.775121-62.620149 26.894551-132.064289 27.831177-195.353456 2.542271C159.627858 777.048478 109.986672 728.611525 82.958317 665.991376s-27.831177-132.064289-2.542271-195.353456l9.232458-23.014243 104.500719 41.746766c-1.873252-18.063505-2.007056-36.796028-0.267608-56.331373 5.619757-62.352541 28.366392-109.719064 29.303018-111.726121l13.915589-28.901607 205.254933 175.149092c7.760617-14.049392 19.401542-37.331243 29.570626-66.500458 15.38743-44.556644 30.373448-113.064158 14.450803-185.85339-19.535346-88.578074-80.148439-164.980008-180.09983-227.33255H134.740363c-13.647981 0-24.753691-11.10571-24.753691-24.753691s11.10571-24.753691 24.753691-24.753691h504.975304c0.802822 0 1.605645 0 2.274664 0.133803h0.401411c0.669019 0.133804 1.338037 0.133804 2.007056 0.267608 0.133804 0 0.401411 0.133804 0.535215 0.133804 0.669019 0.133804 1.204234 0.267607 1.873252 0.535214 0.267607 0 0.401411 0.133804 0.669019 0.133804 0.669019 0.133804 1.204234 0.401411 1.739448 0.669019 0.133804 0 0.267607 0.133804 0.401412 0.133804l1.605644 0.802822c0.133804 0 0.267607 0.133804 0.267608 0.133804 0.669019 0.267607 1.204234 0.669019 1.739449 1.07043 0.133804 0.133804 0.267607 0.133804 0.401411 0.267607l1.605645 1.204234 0.267607 0.267607c0.535215 0.401411 0.936626 0.802822 1.338037 1.204234l0.267608 0.267607c0.401411 0.401411 0.936626 0.936626 1.338037 1.471842 0.133804 0.133804 0.267607 0.401411 0.401411 0.535214l0.267608 0.267608c42.281981 54.725728 69.845551 115.740233 81.887887 181.437867 9.500065 52.317261 9.232458 107.578205-0.802822 164.177186-4.549327 25.155103-10.570495 48.436953-16.993075 68.908924l82.155495-70.113158 13.915588 28.901607c0.936626 2.007056 23.683261 49.373579 29.303019 111.726121 1.471841 16.725467 1.605645 32.915719 0.401411 48.570756l84.831569-33.852345 9.232458 23.014243c25.556514 63.289168 24.619888 132.733307-2.274663 195.353456z m-732.976872-118.014896l-89.247093-35.591794c-11.908533 44.422841-8.563439 91.120345 9.901477 133.937541 21.676205 50.577813 61.817327 89.5147 112.79655 109.986671 24.619888 9.901477 50.444009 14.718411 76.26813 14.718412 27.56357 0 55.12714-5.619757 81.218869-16.859271 29.035411-12.443748 54.324317-31.042467 74.394877-54.190514-52.451065 3.880308-133.000915-2.14086-199.902783-59.408859-30.105841-25.690318-52.183457-57.000392-65.430027-92.592186z m419.474716-560.102444h-235.494578c56.331373 45.225663 97.007709 96.338691 122.029008 152.937672h125.909317c13.647981 0 24.753691 11.10571 24.753691 24.753691s-11.10571 24.753691-24.753691 24.753692H531.200836c1.338037 4.816935 2.542271 9.767673 3.612701 14.718411 7.626813 34.655168 9.633869 71.183588 6.42258 108.381027h65.697634c13.647981 0 24.753691 11.10571 24.753692 24.753691s-11.10571 24.753691-24.753692 24.753691H533.876911c-3.880308 18.598719-9.098654 37.331243-15.655037 55.929963-13.380374 38.267869-28.901607 67.035672-37.465047 81.352672l40.676336 34.655168 118.1487-100.754214 0.401412-0.802823c0.401411-0.669019 36.260813-61.415915 51.782046-148.388344 19.669149-111.458513-1.873252-211.276101-64.493401-297.044297z m172.339213 450.918594c-2.14086-25.42271-7.760617-48.169345-13.112766-65.16242L521.29936 600.026134 256.100353 373.63021c-10.03528 31.979093-20.873383 84.697766-7.894421 137.282635 2.542271 10.302888 6.021168 20.739579 10.704299 30.908663 5.485953 12.042336 12.443748 23.817065 21.408598 35.190383 7.091598 9.098654 15.38743 17.795897 25.155103 26.091728 35.859402 30.641056 81.486476 46.831308 135.676989 48.169346 8.563439 0.267607 16.725467 0 24.218477-0.401411h0.133803c15.922645-0.936626 29.169215-3.077486 37.732654-4.683131 6.154972-1.204234 10.03528-2.274664 10.971907-2.408467h0.267607l6.823991-2.007056 6.82399 2.007056c0.401411 0.133804 12.17614 3.345093 30.77486 5.619757 0.802822 0.133804 1.739449 0.267607 2.542271 0.267607 42.281981 4.816935 116.676859 3.880308 175.684307-46.429897 13.112766-11.10571 24.084673-23.415654 33.183326-36.796027 7.091598-10.570495 12.978962-21.810009 17.662094-33.718542 3.746505-9.633869 6.690187-19.669149 8.697243-30.105841 3.880308-19.936757 4.950738-41.077747 2.943682-63.824383z m105.571148 73.725859l-67.169476 26.760748c-12.845159 39.204495-35.859402 73.458252-68.641317 101.423233-76.535738 65.430027-171.001176 63.958186-220.642362 57.134195 20.338168 24.218476 46.296093 43.620018 76.26813 56.465177 50.577813 21.676205 106.507775 22.479028 157.486999 2.007056 51.113028-20.338168 91.120345-59.408859 112.79655-109.986671 18.464916-42.683392 21.810009-89.5147 9.901476-133.803738zM880.696198-12.125964h-129.388214c-13.647981 0-24.753691-11.10571-24.753692-24.753691s11.10571-24.753691 24.753692-24.753691h129.388214c13.647981 0 24.753691 11.10571 24.753691 24.753691s-11.10571 24.753691-24.753691 24.753691z"  horiz-adv-x="1024" />

    
    <glyph glyph-name="bukejian" unicode="&#58884;" d="M857.038 436.746c37.913 33.828 70.884 73.155 97.508 116.654 8.291 13.547 4.03 31.252-9.518 39.545-13.546 8.294-31.254 4.032-39.545-9.516-84.538-138.118-231.558-220.576-393.281-220.576-161.624 0-308.598 82.381-393.158 220.372-8.3 13.545-26.007 17.794-39.55 9.494-13.545-8.298-17.795-26.006-9.496-39.55 25.635-41.831 57.133-79.808 93.258-112.733l-83.26-101.529c-10.07-12.282-8.281-30.403 4.003-40.476a28.648 28.648 0 0 1 18.22-6.523c8.319 0 16.57 3.59 22.255 10.523l83.369 101.66a517.456 517.456 0 0 1 47.214-30.566c30.8-17.633 63.322-31.967 96.963-42.87l-41.083-121.879c-5.074-15.053 3.016-31.368 18.067-36.443a28.726 28.726 0 0 1 9.191-1.514c12.004 0 23.204 7.577 27.251 19.583l42.32 125.552a519.704 519.704 0 0 1 104.436-10.625c36.658 0 73.087 3.887 108.645 11.489l55.842-123.832c4.8-10.644 15.271-16.945 26.236-16.945 3.951 0 7.97 0.819 11.805 2.55 14.48 6.528 20.926 23.56 14.396 38.042L677.024 332.17c32.034 10.718 63.023 24.568 92.44 41.42a517.166 517.166 0 0 1 42.313 27.069l96.685-96.688a28.681 28.681 0 0 1 20.337-8.423c7.36 0 14.722 2.808 20.337 8.423 11.232 11.234 11.232 29.444 0 40.676l-92.098 92.098z"  horiz-adv-x="1024" />

    
    <glyph glyph-name="tuikuan" unicode="&#58927;" d="M1011.11521 476.324502l-2.49407 2.05736c-10.519383 8.46326-25.921749 6.801784-34.363977-3.796776l-41.898147-52.496706c-1.3658 20.286586-4.054101 40.711731-8.3247 61.217291C871.775141 735.942821 625.938537 898.04004 375.012348 845.444363 124.036674 792.809098-37.03372 545.391432 15.236589 292.795108c52.269073-252.658181 298.094542-414.754164 549.050422-362.099104 91.232728 19.119965 169.651183 64.717153 231.007033 126.348885 0.236293 0.196705 0.473824 0.394647 0.69156 0.651971 1.087444 1.107238 5.280104 6.167132 6.32796 7.353547 2.531184 2.849128 5.041337 6.783227 4.74566 12.97139-0.731148 15.086896-13.565216 24.893687-24.36048 27.523842-11.705798 2.847891-23.727066-6.9589-26.889191-11.072383-55.71945-55.856772-114.643087-93.385348-197.411318-110.727546-227.248608-47.673106-443.673497 83.816087-490.998967 312.567817-47.346501 228.771525 90.361783 447.753578 317.630185 495.425447 227.228814 47.633517 442.91142-91.765934 490.226993-320.517665a437.117904 437.117904 0 0 0 7.612109-52.556089l-50.777084 41.04947c-10.540414 8.46326-25.921749 6.781989-34.346657-3.815333-8.481817-10.59856-6.780752-29.066553 3.737393-37.587958 0.06062-0.059383 1.838387-1.621888 1.899007-1.621888l92.062847-74.02909 2.411182-1.897769c5.339487-4.307714 13.958626-9.945351 20.246997-9.174614 6.347754 0.651972 14.731837 9.412144 19.022231 14.789983 0.021031 0.059383 1.542711 1.818593 1.542711 1.818592l74.02909 93.32844c0.022268 0-0.374853-0.791768-0.335265-0.75218 8.459548 10.619591 9.272348 27.030224-1.245797 35.551629zM469.101628-81.703829c-105.58229 0-209.312584 36.89145-292.08329 103.879988-41.231329 33.369318-76.217586 73.127216-103.990093 118.172641-28.741186 46.61659-49.000555 97.737599-60.213972 151.94403C-0.029691 354.362508-0.411967 417.106426 11.678581 478.785169c11.678581 59.573134 34.44068 115.64888 67.655356 166.670918S154.543256 739.873208 204.152482 774.438838c51.362251 35.787923 108.677608 60.492328 170.35264 73.427841 31.522272 6.607553 63.687855 9.957722 95.601062 9.957722 105.594661 0 209.338564-36.893924 292.122877-103.884936 41.238752-33.370555 76.231195-73.132165 104.007414-118.178827 28.746134-46.620301 49.00674-97.745022 60.221394-151.953926 3.727496-17.896436 6.37992-36.451029 7.902836-55.245627l37.964049 47.566712a26.723414 26.723414 0 0 0 21.009074 10.123499c6.096615 0 12.076939-2.110557 16.83992-5.941973l2.516338-2.077154c12.261273-9.93298 10.385772-27.98282 1.605805-39.00077l-0.158354-0.180622-0.733622-0.757128h-0.11258l-72.686795-91.636035c-0.059383-0.072991-0.964967-1.117135-1.358377-1.586011l-0.188045-0.236293c-2.768714-3.471409-12.444369-14.860499-20.703502-15.707939a12.096734 12.096734 0 0 0-1.457348-0.084126c-7.357259 0-16.06176 6.136204-20.59587 9.794421l-2.388913 1.880449-91.963877 73.949913c-0.494855 0.319182-1.160435 0.865996-2.116743 1.797561-11.445999 9.371319-13.409337 29.249649-4.019461 40.981427a26.688774 26.688774 0 0 0 21.000415 10.132159c6.086718 0 12.062094-2.108083 16.827548-5.933313l46.239263-37.381356a436.829651 436.829651 0 0 1-7.045499 46.455762C832.903033 663.758304 668.884539 798.576634 473.967291 798.576634c-29.373363 0-59.12529-3.115113-88.431848-9.258739C161.086478 742.238615 22.408277 525.905274 69.820347 296.815805 109.45948 105.219035 268.582619-23.503917 465.777438-23.495257c30.561015 0.001237 61.552555 3.252435 92.111096 9.663283 76.504602 16.029595 135.149883 48.916429 196.060364 109.945675 3.261095 4.141937 13.299232 12.418389 24.411203 12.418389 1.68127 0 3.337798-0.195468 4.922572-0.581455 12.472823-3.03841 25.493699-14.253065 26.248353-29.808835 0.352584-7.39561-2.894902-11.950751-5.367941-14.734312-0.361244-0.409493-1.117135-1.30518-1.986844-2.334479-2.017772-2.388913-3.627288-4.284208-4.365859-5.049996a7.172925 7.172925 0 0 0-0.843728-0.805377c-64.464777-64.725813-144.747599-108.621937-232.171179-126.942711-31.554437-6.621162-63.750949-9.978754-95.693847-9.978754z m1.003318 934.579679c-31.572994 0-63.39589-3.315529-94.585371-9.852565C126.287028 790.752975-34.248923 544.146871 17.658905 293.296148 62.017719 78.874185 251.87631-76.755277 469.100391-76.755277c31.602685 0 63.457747 3.321715 94.676919 9.871122 86.515522 18.131492 165.964512 61.588432 229.761235 125.673408l0.173199 0.157116a3.525843 3.525843 0 0 1 0.383513 0.346399l0.124951 0.136085c0.635889 0.647023 2.682115 3.068102 4.17534 4.835972 0.901873 1.06765 1.684982 1.993029 2.064783 2.422316 2.062309 2.322108 4.391839 5.690834 4.127092 11.214654-0.635889 13.128506-11.787449 22.634673-22.475083 25.237611a15.892272 15.892272 0 0 1-3.751002 0.440421c-9.482661 0-18.411085-7.782834-20.590921-10.617116l-0.210314-0.238768c-60.85852-61.009451-122.127771-95.36848-198.655878-111.401786-30.892568-6.481365-62.225558-9.76844-93.126787-9.76844-47.508566-0.002474-93.886389 7.647986-137.845606 22.736119-43.492817 14.929779-83.583505 36.777633-119.157403 64.934889C134.568429 117.962792 84.844148 199.773478 64.974478 295.812487 17.001985 527.612525 157.362693 746.512927 384.518515 794.162527c29.639348 6.212906 59.733962 9.363896 89.447539 9.363896 47.722591 0 94.441864-7.990673 138.863771-23.750572 43.704368-15.506285 84.089494-38.129825 120.032059-67.242152 36.282778-29.388209 67.071427-64.615708 91.511084-104.703921 25.25988-41.435457 43.19343-87.228113 53.304557-136.104954a441.827687 441.827687 0 0 0 7.655409-52.851765l0.481246-5.768773-55.279028 44.689129c-3.940284 3.163361-8.687182 4.838446-13.72357 4.838446a21.774863 21.774863 0 0 1-17.131885-8.269029c-7.697471-9.617509-6.032284-26.519286 3.357592-34.12521l0.174437-0.154642c0.101445-0.090311 0.791768-0.694034 1.24456-1.081258l94.928059-76.291815c6.77333-5.464438 13.311603-8.715636 17.511686-8.715636 0.30681 0 0.608672 0.01732 0.90311 0.053197 4.753083 0.489907 12.109105 7.275607 17.336013 13.810169 0.242479 0.32413 0.698983 0.851151 1.659001 1.960864l75.51613 95.206415c5.617843 9.243894 5.963004 22.317966-2.753869 29.379548l-2.510153 2.072206a21.687026 21.687026 0 0 1-13.714909 4.829786 21.798368 21.798368 0 0 1-17.139308-8.260369l-45.874307-57.477423-0.42805 6.357651c-1.396729 20.720821-4.181526 41.202875-8.278926 60.878315C877.254424 697.237727 687.368615 852.87585 470.104946 852.87585zM650.318812 363.878572v0.235056c14.040277 0 25.527102 11.478165 25.527102 25.64463 0 14.128114-11.486825 25.586484-25.527102 25.586484H496.368145v47.128765L648.935692 612.113986l-0.159591 0.186808c10.578765 9.381216 11.547444 25.556793 2.155094 36.154115-9.410907 10.608457-25.56669 11.51899-36.10463 2.164991l-143.540152-141.491452-150.945659 148.256122c-10.597323 9.402247-26.771662 8.413774-36.144218-2.184786-9.372556-10.539177-8.413774-26.722177 2.155094-36.084835l-0.148457-0.188045 158.726019-155.24595v-48.334975H290.998319v-0.117528c-14.088525 0-25.546896-11.459608-25.546895-25.596381 0-14.167702 11.457133-25.634733 25.546895-25.634733v-0.117528h153.930873v-79.093932H290.998319v-0.138559c-14.088525 0-25.576587-11.485587-25.576587-25.585247 0-14.118217 11.486825-25.62731 25.576587-25.62731v-0.117528h153.930873v-151.993515h0.117528c0-14.03904 11.478165-25.527102 25.606279-25.527102 14.126877 0 25.576587 11.468268 25.576587 25.527102h0.138559v151.994752h153.912316v0.256087c14.078628 0 25.565453 11.548681 25.565453 25.605042 0 14.198631-11.486825 25.606278-25.565453 25.606278h-153.912316v79.092695h153.950667zM470.652999 53.323578c-14.647712 0-26.711043 11.241871-27.971686 25.527102h-0.108869l-0.117528 2.474275V230.844194H288.524044v0.226397c-14.312447 1.259406-25.576587 13.332634-25.576587 27.992717 0 14.637815 11.262903 26.693723 25.576587 27.950655v0.247427h153.930872v74.145381H288.524044v0.226396c-14.296365 1.260643-25.546896 13.337583-25.546896 28.00014 0 14.642763 11.250531 26.70362 25.546896 27.963026v0.108868l2.474275 0.117528h151.456597V462.642995L282.880221 618.715353l0.13856 0.174437c-4.583596 4.787723-7.294165 10.982072-7.692523 17.678699-0.44537 7.482209 2.047463 14.682352 7.020757 20.275452a28.079317 28.079317 0 0 0 21.018971 9.47029c6.859929 0 13.472431-2.513864 18.61645-7.078903l0.091548-0.085362 149.208718-146.550109 141.900944 139.873276a28.006326 28.006326 0 0 0 18.60779 7.071479 28.083028 28.083028 0 0 0 20.990517-9.445547c9.731326-10.980835 9.294616-27.517656-0.617332-37.959099l0.149694-0.175674-153.471894-150.528743v-43.615294h151.476391c15.43948 0 28.001377-12.587877 28.001377-28.06076 0-14.667506-11.241871-26.748157-25.527102-28.011274v-0.343925H498.842421v-74.144143h151.43804c15.460511 0 28.039729-12.597774 28.039728-28.080554 0-14.648949-11.259191-26.713517-25.565453-27.970449v-0.364956h-153.912315v-151.993514h-0.247428c-1.259406-14.28523-13.310366-25.527102-27.941994-25.527102z m-23.249531 30.474416l0.117528-2.474276c0-12.710354 10.377112-23.052826 23.132003-23.052826 12.738808 0 23.102312 10.341235 23.102311 23.052826v2.474276h0.13856v151.994752h153.912315v0.256087h2.474276c12.732622 0 23.091177 10.377112 23.091177 23.130766 0 12.756128-10.358555 23.132003-23.091177 23.132003h-156.386591v84.041246h153.950666v0.235056h2.474276c12.710354 0 23.052826 10.394432 23.052826 23.170354 0 12.743757-10.341235 23.112209-23.052826 23.112209H493.89387v50.642236l151.661961 148.752214-0.236293 0.278356 1.814881 1.608279c9.538333 8.458311 10.410515 23.110972 1.944781 32.661675a23.132003 23.132003 0 0 1-17.287764 7.78036c-5.630214 0-11.052589-2.053649-15.276178-5.782382L471.28765 505.655803 318.653298 655.574637a23.087466 23.087466 0 0 1-15.287312 5.791042 23.127054 23.127054 0 0 1-17.316218-7.805102 22.901895 22.901895 0 0 1-5.783619-16.697649 22.911792 22.911792 0 0 1 7.725926-15.895984l1.751787-1.551371-0.218974-0.277119L447.403468 464.721387v-51.849683H293.472595l-2.474276-0.117528c-12.722725 0-23.07262-10.372163-23.07262-23.122106 0-12.770974 10.349895-23.160457 23.07262-23.160457h2.474276v-0.117528h153.930873v-84.042483H293.472595v-0.13856h-2.474276c-12.738808 0-23.102312-10.367215-23.102311-23.110971 0-12.766025 10.363503-23.153034 23.102311-23.153034h2.474276v-0.117529h153.930873v-151.993514z"  horiz-adv-x="1024" />

    
    <glyph glyph-name="xiangyouanniu" unicode="&#59123;" d="M737.28 377.173333s-3.413333 0 0 0L392.533333 735.573333c-17.066667 20.48-47.786667 20.48-68.266666 0-17.066667-17.066667-17.066667-44.373333 0-64.853333l310.613333-324.266667-324.266667-310.613333c-20.48-17.066667-20.48-47.786667 0-68.266667 17.066667-20.48 47.786667-20.48 68.266667 0l358.4 341.333334c3.413333 3.413333 6.826667 10.24 10.24 17.066666 6.826667 17.066667 3.413333 37.546667-10.24 51.2z"  horiz-adv-x="1024" />

    
    <glyph glyph-name="duobianxing" unicode="&#58885;" d="M821.337572 301.905496q144.203382-217.318826 69.367978-324.734236c-108.60002-155.870481-662.198139-125.534398-756.885511 6.326594q-79.053134 110.090544 81.178271 329.043089 64.762972 88.49909 128.58379 140.040978A257.496277 257.496277 0 0 0 265.482511 637.598994C265.482511 780.305343 381.279683 896 524.125972 896s258.645087-115.694657 258.645087-258.401006a257.606927 257.606927 0 0 0-83.76879-190.370595q61.640356-53.909479 122.335303-145.322903z"  horiz-adv-x="1024" />

    
    <glyph glyph-name="dianhua1" unicode="&#59015;" d="M752.8-127.9c-66.1 0-151.3 44-211.3 80.9-80.2 49.4-166.7 117.8-243.4 192.6l-0.3 0.3-24.4 24.4c-74.6 76.7-143 163.1-192.5 243.4C44 473.6 0 558.9 0 624.9c0 70.7 50.6 145.7 72.3 174.7C89.2 822.2 148.5 896 198.8 896c20.7 0 42.9-13.5 72.2-43.9 25.9-26.8 50.7-60.2 67-83.4 21.9-31.2 42.1-63.9 56.9-92 24-45.6 26.8-65.1 26.8-75.8 0-21.7-11.3-40.4-33.6-55.8-14.7-10.1-32.3-17.8-49.4-25.1-11.5-5-29.9-12.9-36.9-18.5 2.4-10.4 13.1-35.4 42-77.7 26.9-39.5 61.7-82.3 93.1-114.5 32.3-31.4 75-66.2 114.5-93.1 42.4-28.9 67.4-39.5 77.7-42 5.6 7 13.5 25.4 18.5 36.9 7.4 17.1 15 34.7 25.1 49.4 15.4 22.3 34.2 33.6 55.8 33.6 10.7 0 30.3-2.8 75.8-26.8 28.1-14.9 60.8-35.1 92-56.9 23.2-16.3 56.6-41.1 83.4-67 30.3-29.3 43.9-51.5 43.9-72.2 0-50.3-73.8-109.6-96.4-126.5-28.7-22-103.7-72.6-174.4-72.6z m0 0"  horiz-adv-x="1024" />

    
    <glyph glyph-name="zuoanniu" unicode="&#58948;" d="M632.685714 603.428571c-7.314286 0-10.971429 0-14.628571-7.314285l-241.371429-193.828572c-7.314286-3.657143-10.971429-10.971429-10.971428-18.285714s3.657143-14.628571 10.971428-18.285714l241.371429-193.828572c10.971429-7.314286 25.6-7.314286 36.571428 3.657143 7.314286 10.971429 7.314286 25.6-3.657142 36.571429l-219.428572 171.885714 219.428572 175.542857c10.971429 7.314286 10.971429 25.6 3.657142 36.571429-7.314286 3.657143-14.628571 7.314286-21.942857 7.314285z"  horiz-adv-x="1024" />

    
    <glyph glyph-name="weibo" unicode="&#58987;" d="M512 861.090909C249.018182 861.090909 34.909091 646.981818 34.909091 384s214.109091-477.090909 477.090909-477.090909 477.090909 214.109091 477.090909 477.090909S774.981818 861.090909 512 861.090909z m0-941.381818C256-80.290909 47.709091 128 47.709091 384S256 848.290909 512 848.290909 976.290909 640 976.290909 384 768-80.290909 512-80.290909z m144.290909 463.127273c-23.272727 4.654545-11.636364 17.454545-11.636364 17.454545s23.272727 37.236364-4.654545 65.163636c-33.745455 33.745455-116.363636-4.654545-116.363636-4.654545-31.418182-9.309091-23.272727 4.654545-18.618182 29.090909 0 27.927273-9.309091 76.8-93.090909 47.709091S256 409.6 256 409.6C205.963636 342.109091 212.945455 290.909091 212.945455 290.909091c12.8-112.872727 133.818182-144.290909 226.90909-151.272727 98.909091-8.145455 232.727273 33.745455 272.29091 119.854545 40.727273 84.945455-32.581818 118.690909-55.854546 123.345455z m-209.454545-211.781819c-97.745455-4.654545-178.036364 44.218182-178.036364 109.381819 0 65.163636 79.127273 117.527273 178.036364 122.181818 97.745455 4.654545 178.036364-36.072727 178.036363-101.236364 0-64-79.127273-125.672727-178.036363-130.327273z m257.163636 252.509091c8.145455 0 15.127273 5.818182 16.290909 13.963637v1.163636c11.636364 108.218182-88.436364 89.6-88.436364 89.6-9.309091 0-16.290909-6.981818-16.290909-16.290909 0-9.309091 6.981818-16.290909 16.290909-16.290909 72.145455 16.290909 57.018182-55.854545 57.018182-55.854546-1.163636-9.309091 6.981818-16.290909 15.127273-16.290909z m-11.636364 188.509091c-34.909091 8.145455-70.981818 1.163636-80.290909-1.163636-1.163636 0-1.163636-1.163636-2.327272-1.163636-10.472727-2.327273-17.454545-11.636364-17.454546-23.272728 0-12.8 10.472727-23.272727 23.272727-23.272727 0 0 12.8 1.163636 20.945455 4.654545 8.145455 3.490909 80.290909 2.327273 116.363636-57.018181 19.781818-44.218182 8.145455-73.309091 6.981818-77.963637 0 0-4.654545-11.636364-4.654545-22.109091 0-12.8 10.472727-20.945455 23.272727-20.945454 10.472727 0 19.781818 1.163636 22.109091 19.781818 39.563636 128-45.381818 187.345455-108.218182 202.472727zM427.054545 360.727273c-98.909091-11.636364-87.272727-103.563636-87.272727-103.563637s-1.163636-29.090909 26.763637-44.218181c58.181818-31.418182 117.527273-12.8 147.781818 26.763636 30.254545 38.4 11.636364 131.490909-87.272728 121.018182z m-24.436363-129.163637c-18.618182-2.327273-33.745455 8.145455-33.745455 23.272728s12.8 31.418182 31.418182 33.745454c20.945455 2.327273 34.909091-10.472727 34.909091-25.6 1.163636-15.127273-13.963636-30.254545-32.581818-31.418182z m58.181818 48.872728c-5.818182-4.654545-13.963636-3.490909-17.454545 1.163636-3.490909 5.818182-2.327273 13.963636 4.654545 18.618182 6.981818 5.818182 15.127273 3.490909 18.618182-1.163637 2.327273-5.818182 0-13.963636-5.818182-18.618181z"  horiz-adv-x="1024" />

    
    <glyph glyph-name="qizhi" unicode="&#59497;" d="M756.022 773.803c86.047 0 142.802 9.123 195.584 41.766v-516.406c-52.782-32.582-107.799-55.203-193.846-55.203-85.985 0-117.884 9.837-170.512 42.636-52.565 32.52-109.568 42.636-195.521 42.636-85.923 0-158.845-31.93-211.534-64.575V800.147c52.69 32.8 125.642 64.73 211.534 64.73 85.953 0 142.987-10.21 195.521-42.636 52.69-32.52 82.882-48.438 168.774-48.438zM98.149-114.16a31.03 31.03 0 0 0-31.03 31.03V832.574a31.03 31.03 0 1 0 62.06 0V-83.13a31.03 31.03 0 0 0-31.03-31.03z"  horiz-adv-x="1024" />

    
    <glyph glyph-name="jiasuqi" unicode="&#58993;" d="M511.96388 895.96388c-282.710688 0-511.89164-229.217072-511.89164-512.03612 0-282.602328 229.180952-511.89164 511.89164-511.89164 282.746808 0 512 229.289312 512 511.89164C1023.96388 666.710688 794.710688 895.96388 511.96388 895.96388zM512-83.53636700000004c-258.149136 0-467.428007 209.314991-467.428007 467.464127 0 258.185256 209.278871 467.464127 467.428007 467.464127 258.113016 0 467.428007-209.278871 467.428007-467.464127C979.428007 125.77862400000004 770.149136-83.53636700000004 512-83.53636700000004zM644.95746 728.042328L254.464903 383.60268099999996 537.283951 336.14109299999996 397.716543 42.991746000000035 765.923104 426.151958 504.161975 462.560847Z"  horiz-adv-x="1024" />

    
    <glyph glyph-name="icon--" unicode="&#59228;" d="M847.36 465.92l-366.08-358.4c-61.44-58.88-158.72-58.88-217.6 0a148.48 148.48 0 0 0 0 215.04L591.36 647.68c40.96 40.96 104.96 40.96 145.92 0 40.96-40.96 40.96-104.96 0-143.36L409.6 179.2c-20.48-20.48-53.76-20.48-71.68 0-20.48 20.48-20.48 51.2 0 71.68l291.84 289.28-35.84 35.84-294.4-289.28c-40.96-40.96-40.96-104.96 0-143.36 40.96-40.96 104.96-40.96 145.92 0l327.68 325.12a148.48 148.48 0 0 1 0 215.04C714.24 742.4 614.4 742.4 555.52 683.52L207.36 340.48c-61.44-81.92-53.76-197.12 20.48-271.36 74.24-74.24 192-79.36 271.36-17.92l381.44 378.88-33.28 35.84z"  horiz-adv-x="1024" />

    
    <glyph glyph-name="scan_icon" unicode="&#58896;" d="M39.78 495.11a27.77 27.77 0 0 1 27.78 27.78V828.44h305.55a27.78 27.78 0 1 1 0 55.56H39.78A27.77 27.77 0 0 1 12 856.22v-333.33a27.77 27.77 0 0 1 27.78-27.78zM373.11-60.440000000000055H67.56V245.11a27.78 27.78 0 1 1-55.56 0v-333.33A27.77 27.77 0 0 1 39.78-116h333.33a27.78 27.78 0 0 1 0 55.56zM984.22 884H650.89a27.78 27.78 0 1 1 0-55.56h305.55v-305.55a27.78 27.78 0 1 1 55.56 0V856.22A27.76 27.76 0 0 1 984.22 884zM984.22 272.89a27.76 27.76 0 0 1-27.78-27.78v-305.55H650.89a27.78 27.78 0 1 1 0-55.56h333.33a27.76 27.76 0 0 1 27.78 27.78V245.11a27.76 27.76 0 0 1-27.78 27.78zM984.22 411.78H39.78a27.78 27.78 0 0 1 0-55.56h944.44a27.78 27.78 0 0 1 0 55.56z"  horiz-adv-x="1024" />

    
    <glyph glyph-name="xingxing" unicode="&#58901;" d="M558.592 896l183.68-321.28 373.632-69.12-260.096-268.8L903.04-128 558.592 28.16 214.144-128l47.232 364.8L1.28 505.6l373.632 69.12L558.592 896"  horiz-adv-x="1116" />

    
    <glyph glyph-name="riqi" unicode="&#58952;" d="M327.219 336.092h-82.221c-22.713 0-41.12-17.677-41.12-39.501 0-21.824 18.407-39.501 41.12-39.501h82.221c22.713 0 41.12 17.677 41.12 39.501 0 21.824-18.407 39.501-41.12 39.501M326.54 173.772h-82.221c-22.713 0-41.12-17.677-41.12-39.501 0-21.824 18.407-39.501 41.12-39.501h82.221c22.713 0 41.12 17.677 41.12 39.501 0 21.824-18.408 39.501-41.12 39.501M473.277 257.091h82.221c22.713 0 41.12 17.677 41.12 39.501 0 21.824-18.407 39.501-41.12 39.501h-82.221c-22.713 0-41.12-17.677-41.12-39.501-0.001-21.825 18.407-39.501 41.12-39.501M560.938 173.772h-82.221c-22.713 0-41.12-17.677-41.12-39.501 0-21.824 18.407-39.501 41.12-39.501h82.221c22.713 0 41.12 17.677 41.12 39.501 0.001 21.824-18.407 39.501-41.12 39.501M783.781 336.092H701.56c-22.713 0-41.12-17.677-41.12-39.501 0-21.824 18.407-39.501 41.12-39.501h82.221c22.713 0 41.12 17.677 41.12 39.501 0 21.824-18.407 39.501-41.12 39.501M881.847 693.825h-72.721v-35.254c0-48.882-39.994-88.876-88.876-88.876-48.882 0-88.876 39.994-88.876 88.876v35.254H395.14v-35.254c0-48.882-39.994-88.876-88.876-88.876-48.882 0-88.876 39.994-88.876 88.876v35.254H142.85c-43.628 0-79.001-35.373-79.001-79.001V40.84c0-57.809 46.867-104.657 104.657-104.657h687.686c57.809 0 104.657 46.848 104.657 104.657V614.824c0 43.629-35.373 79.001-79.002 79.001z m14.398-633.787c0-32.726-26.525-59.251-59.251-59.251H187.703c-32.726 0-59.251 26.525-59.251 59.251V385.78c0 32.726 26.525 59.251 59.251 59.251h649.292c32.726 0 59.251-26.525 59.251-59.251v-325.742zM306.26 634.705c-21.725 0-39.501 17.775-39.501 39.501V792.707c0 21.725 17.775 39.501 39.501 39.501 21.725 0 39.501-17.775 39.501-39.501v-118.502c0-21.725-17.776-39.5-39.501-39.5M680.752 674.205V792.707c0 21.725 17.775 39.501 39.501 39.501 21.725 0 39.501-17.775 39.501-39.501v-118.502c0-21.725-17.775-39.501-39.501-39.501-21.726 0.001-39.501 17.776-39.501 39.501z"  horiz-adv-x="1024" />

    
    <glyph glyph-name="wodeqianbao" unicode="&#58902;" d="M873.467229 715.266386H331.266386c4.095946 3.071959 6.655912 5.631926 9.215878 7.167905 96.766723 51.711317 193.021452 103.422635 289.788175 154.109966C684.029729 904.703885 737.277026 903.167905 786.428378 865.280405c9.215878-7.167905 17.40777-16.895777 23.039695-27.135641 21.503716-39.935473 41.983446-80.382939 63.999156-122.878378z m119.294425-320.50777h-17.919764c-70.143074 0-140.286148-2.559966-209.917229 0.511994-74.23902 3.071959-122.366385-62.975169-104.958614-133.118243 13.311824-53.247297 43.007432-76.798986 98.814695-76.798986h233.980912c0.511993-6.143919 1.023986-10.239865 1.023986-14.847804v-194.045439c0-24.063682-5.631926-46.079392-19.967736-65.535135-18.94375-26.623649-45.567399-38.399493-78.334966-38.399493h-350.203377c-134.654223 0-269.308445 1.53598-403.962668-0.511993-71.679054-1.023986-111.102533 56.319257-110.59054 109.566553 0.511993 189.949493 0 379.898985 0 569.848478C30.726353 603.139866 63.49392 645.123312 110.085305 653.315203c7.679899 1.53598 15.87179 1.53598 23.551689 1.53598h757.749998c57.855236 0 100.350675-39.42348 101.886655-96.254729 1.53598-51.199324 0.511993-102.398648 0.511993-153.597973 0-2.559966-0.511993-5.119932-1.023986-10.239865z m-179.709628-100.350675c0-34.81554-25.599662-60.927196-59.903209-60.927196-34.303547 0-60.415203 25.599662-60.415203 60.927196 0 34.81554 25.599662 59.903209 60.927196 59.903209 34.303547-0.511993 59.391216-25.599662 59.391216-59.903209z"  horiz-adv-x="1024" />

    
    <glyph glyph-name="weibo1" unicode="&#58976;" d="M0 896zM808.4 361.89c-11.157 2.238-18.396 5.579-21.727 10.023s-3.886 8.537-1.68 12.27l3.35 5.568c0.744 0.743 1.486 1.856 2.249 3.351 0.763 1.496 2.248 4.661 4.464 9.486 2.217 4.826 3.887 9.662 5.033 14.488s2.073 10.775 2.784 17.838 0.526 13.755-0.568 20.086c-1.094 6.332-3.33 13.199-6.712 20.623-3.382 7.424-8.033 14.116-13.952 20.086-10.414 10.415-23.994 17.116-40.708 20.086-16.725 2.97-33.45 3.166-50.164 0.567-16.724-2.598-32.522-5.939-47.38-10.022-14.869-4.093-27.128-7.991-36.79-11.703l-14.488-6.713c-7.445-2.237-13.58-3.722-18.416-4.464-4.825-0.743-8.547-0.547-11.167 0.567s-4.66 2.237-6.135 3.351c-1.473 1.114-2.031 3.723-1.68 7.816 0.361 4.093 0.721 7.62 1.104 10.6 0.381 2.97 1.309 7.62 2.784 13.951s2.598 11.353 3.351 15.055c0 8.92-0.556 17.282-1.68 25.087-1.124 7.805-3.537 16.529-7.25 26.19-3.711 9.662-9.093 17.457-16.167 23.407-7.074 5.95-15.983 10.775-26.757 14.487-10.776 3.712-24.716 4.826-41.823 3.352-17.107-1.475-36.429-5.94-57.98-13.384-26.026-8.92-52.412-22.107-79.18-39.574-26.757-17.457-49.988-35.667-69.683-54.629-19.695-18.962-37.73-37.357-54.093-55.196-16.364-17.838-29.005-32.336-37.924-43.493l-12.27-17.838c-24.53-31.975-42.73-63.94-54.628-95.915-11.898-31.975-17.467-56.124-16.736-72.467v-23.407c4.475-35.677 15.436-67.651 32.893-95.915 17.456-28.263 38.275-51.123 62.444-68.58s52.609-32.325 85.316-44.606c32.707-12.27 64.115-21.2 94.234-26.757 30.12-5.568 61.9-9.466 95.337-11.703 55.022-4.475 112.073-0.206 171.166 12.807 59.083 13.012 114.093 35.501 165.031 67.476s86.8 70.26 107.618 114.856c12.631 26.026 19.137 50.556 19.519 73.612 0.381 23.045-3.516 41.822-11.704 56.31-8.186 14.487-18.787 27.303-31.79 38.46-13.001 11.156-25.272 19.343-36.79 24.55-11.516 5.208-21.736 8.548-30.645 10.023l-0.01-0.063zM468.314 15.094c-80.283-3.712-148.481 11.91-204.595 46.854-56.114 34.944-84.17 79.18-84.17 132.695 0 52.783 27.881 98.317 83.634 136.593 55.752 38.274 124.147 59.279 205.171 63.012s149.41-9.641 205.172-40.142c55.753-30.49 83.634-72.127 83.634-124.89 0-53.525-28.439-101.658-85.316-144.398-56.876-42.75-124.703-65.97-203.49-69.683l-0.04-0.041z m-32.326 308.903c-21.55-2.237-40.873-7.26-57.98-15.055-17.107-7.806-30.49-16.725-40.141-26.757-9.662-10.043-17.838-20.818-24.55-32.326-6.714-11.517-11.364-22.85-13.952-34.006-2.588-11.156-4.269-21.375-5.032-30.645-0.763-9.27-1.134-16.518-1.104-21.725l1.104-8.92v-4.464c0-2.237 0.752-6.692 2.248-13.384 1.495-6.681 3.547-12.816 6.135-18.416 2.587-5.588 6.867-11.724 12.805-18.416 5.95-6.681 13.013-12.26 21.2-16.735 49.072-23.788 94.791-31.026 137.16-21.725s76.561 30.676 102.586 64.115c10.415 12.631 17.292 28.253 20.623 46.854s2.577 37.368-2.248 56.31c-4.826 18.93-13.189 36.213-25.087 51.845-11.889 15.631-29.542 27.716-52.948 36.254-23.407 8.537-50.36 10.95-80.85 7.248l0.031-0.052z m-40.14-210.771c-4.475-0.732-8.745-0.928-12.807-0.567-4.073 0.36-7.785 1.103-11.167 2.248a121.244 121.244 0 0 0-10.023 3.887c-3.31 1.454-6.093 3.496-8.352 6.135-2.258 2.64-4.3 5.249-6.135 7.816-1.835 2.568-3.32 5.537-4.465 8.92-1.144 3.381-1.701 6.908-1.68 10.6 0 8.186 2.238 16.177 6.713 23.973s10.61 14.498 18.416 20.086c7.805 5.59 16.529 8.755 26.19 9.486 6.682 0.732 13.19 0.547 19.52-0.567 6.33-1.113 11.712-2.97 16.167-5.567 4.454-2.598 8.352-5.568 11.703-8.92 3.351-3.35 5.764-7.259 7.239-11.703 1.474-4.454 2.226-9.28 2.248-14.487 0-8.188-2.413-15.983-7.249-23.407-4.826-7.424-11.332-13.734-19.519-18.941s-17.106-8.188-26.757-8.92l-0.043-0.072z m94.769 80.283c-5.207-3.712-10.6-5.393-16.168-5.032-5.568 0.361-9.465 2.774-11.703 7.24l-2.248 4.464c-0.743 1.495-1.104 2.98-1.104 4.464v4.465c0 2.238 0.371 4.094 1.104 5.568l2.248 4.464a7.145 7.145 0 0 0 3.35 3.352l3.351 4.464c5.95 4.476 11.703 6.332 17.272 5.568 5.568-0.763 9.465-3.732 11.703-8.919 2.238-2.97 3.166-6.32 2.784-10.022-0.381-3.712-1.495-7.239-3.35-10.6-1.857-3.351-4.268-6.517-7.239-9.486v0.01z m395.847 233.064c4.475 0 8.57 1.113 12.27 3.351 3.712 2.237 6.68 5.022 8.919 8.352 2.238 3.33 3.722 6.867 4.464 10.6 0.743 0.732 1.104 1.856 1.104 3.351 8.92 84.758-20.818 133.077-89.202 144.976-20.076 3.712-38.667 4.083-55.774 1.103-5.207 0-9.672-1.299-13.383-3.887-3.712-2.588-6.878-5.94-9.487-10.023-2.62-4.093-3.918-8.362-3.887-12.806 0-7.445 2.61-13.766 7.816-18.942 5.208-5.186 11.529-7.795 18.942-7.815 57.99 13.394 89.213-5.197 93.667-55.774 1.496-12.63 0.753-24.52-2.248-35.676 0-7.445 2.61-13.766 7.817-18.942 5.207-5.186 11.528-7.795 18.952-7.816l0.03-0.052z m-18.94 314.43c-32.708 7.444-76.572 5.96-131.592-4.465-0.743 0-1.485-0.371-2.248-1.103l-1.104-2.248-1.104-1.103c-8.186-2.238-14.879-6.889-20.086-13.952-5.207-7.063-7.816-14.693-7.816-22.87 0-11.157 3.722-20.447 11.167-27.871 7.445-7.424 16.364-11.147 26.757-11.168h3.35c0.733 0 2.414 0.372 5.033 1.104 2.62 0.742 5.403 1.299 8.352 1.68 2.95 0.382 6.115 1.135 9.487 2.249s6.352 2.237 8.92 3.351c2.567 1.114 7.588 1.681 15.053 1.681 7.465 0 16.581-0.557 27.335-1.68 10.754-1.125 22.644-3.898 35.677-8.353 13.032-4.454 26.046-10.022 39.038-16.735 12.992-6.712 25.994-15.993 39.038-27.87 13.034-11.87 24.376-25.624 34.006-41.246 19.334-43.864 23.067-86.243 11.167-127.137 0-0.732-0.184-1.485-0.567-2.248-0.382-0.763-0.938-2.62-1.68-5.568s-1.486-5.733-2.249-8.352c-0.762-2.62-1.505-5.96-2.248-10.022-0.742-4.073-1.103-7.6-1.103-10.6 0-6.682 1.856-12.26 5.568-16.735 3.712-4.475 8.363-7.63 13.951-9.486s12.095-2.784 19.519-2.784c20.819 0 33.079 12.641 36.79 37.935 8.92 28.995 13.942 56.68 15.054 83.067 1.114 26.376-0.742 49.607-5.568 69.683-4.826 20.076-12.075 38.843-21.726 56.31-9.662 17.456-20.808 32.325-33.47 44.606-12.652 12.27-26.789 23.426-42.39 33.47-15.6 10.043-30.665 18.034-45.172 23.973-14.508 5.95-29.573 10.775-45.174 14.488h0.034v-0.001z"  horiz-adv-x="1079" />

    
    <glyph glyph-name="wodedangxuan" unicode="&#58886;" d="M512 883.2C236.544 883.2 12.8 659.456 12.8 384s223.744-499.2 499.2-499.2 499.2 223.744 499.2 499.2S787.456 883.2 512 883.2z m238.592-733.184c-5.632-6.656-14.336-11.264-23.552-11.264H295.936c-8.704 0-17.92 4.608-23.552 11.264-5.632 7.68-7.68 16.896-5.632 25.6 20.992 105.984 102.4 186.368 203.776 204.288C420.352 397.312 384 445.44 384 501.248c0 70.144 57.856 128 128 128s128-57.856 128-128c0-57.344-38.4-105.984-90.624-122.368 19.968-3.072 40.96-8.704 61.44-16.896 11.776-4.608 15.36-7.68 22.528-11.264 64.512-36.864 109.056-100.352 123.904-175.104 2.048-9.216 0-17.92-6.656-25.6z"  horiz-adv-x="1024" />

    
    <glyph glyph-name="fenxiang-4" unicode="&#59104;" d="M832.568 256.265c-62.842 0-118.636-30.177-153.69-76.825L376.936 330.924c4.773 16.755 7.329 34.442 7.329 52.727 0 20.032-3.069 39.343-8.756 57.494l300.8 150.919c34.862-48.632 91.854-80.324 156.259-80.324 106.112 0 192.131 86.016 192.131 192.128S938.68 896 832.568 896 640.435 809.98 640.435 703.8679999999999c0-7.34 0.43-14.58 1.226-21.71l-317.25-159.17c-34.45 32.717-81.018 52.795-132.278 52.795C86.02 575.783 0 489.763 0 383.65s86.02-192.128 192.133-192.128c53.12 0 101.211 21.562 135.99 56.416l314.1-157.588a193.244 193.244 0 0 1-1.788-26.22C640.435-41.98000000000002 726.45-128 832.563-128c106.112 0 192.131 86.02 192.131 192.132S938.68 256.265 832.568 256.265z m0 0"  horiz-adv-x="1025" />

    
    <glyph glyph-name="baochekeyun" unicode="&#58963;" d="M1079.069 81.646l-76.17-0.232c2.32-6.262 3.842-12.859 3.842-19.844 0-33.271-28.633-60.229-63.941-60.229-35.332 0-63.951 26.957-63.951 60.229 0 6.855 1.48 13.324 3.723 19.482l-228.311-0.67-19.393-0.051c-5.477-43.863-38.492-77.727-78.824-77.727-40.216 0-73.166 33.682-78.771 77.365l-55.345-0.129c11.34 13.248 21.417 27.783 30.153 43.322l29.045 0.285c11.107 34.791 40.307 59.814 74.918 59.814 34.148 0 63.076-24.301 74.533-58.348l21.402 0.234s3.041 56.852 0 70.254c-3.055 13.348-74.609 53.5-74.609 53.5l-89.904-11.029c0.785 8.736 1.224 17.576 1.224 26.545 0 57.109-16.249 109.992-43.786 153.599V545.022l-80.91-45.848c-30.849 19.226-65.834 31.209-103.139 34.146 137.569 83.888 340.341 205.376 385.416 220.787 0 0 10.27 8.788 28.543 11.313l210.115 1.237s219.254-25.102 223.828-304.88v-356.32c-0.001 0.002-6.856-23.811-29.688-23.811z m-521.016 62.729c-25.385 0-45.963-22.473-45.963-50.203 0-27.705 20.579-50.178 45.963-50.178 25.387 0 45.951 22.473 45.951 50.178 0 27.73-20.564 50.203-45.951 50.203z m57.381 474.251l-146.177-63.579v-175.635l147.699 48.503-1.522 190.711z m184.228-396.472h182.723V242.23H799.662v-20.076z m0 40.151h182.723v20.078H799.662v-20.078z m-57.857-58.553c20.18 0 36.545 17.99 36.545 40.152 0 22.164-16.365 40.154-36.545 40.154-20.178 0-36.543-17.99-36.543-40.154 0-22.162 16.365-40.152 36.543-40.152z m223.828 411.524c-35.023 11.701-278.643 8.351-278.643 8.351l4.574-281.015h376.086c1.52 214.111-66.992 260.963-102.017 272.664z m85.268-331.217c-20.193 0-36.545-17.99-36.545-40.154 0-22.162 16.352-40.152 36.545-40.152 20.178 0 36.543 17.99 36.543 40.152 0 22.163-16.366 40.154-36.543 40.154z m-603.086-28.916c0-135.869-100.239-245.992-223.905-245.992-123.653 0-223.905 110.123-223.905 245.992 0 135.868 100.252 246.015 223.905 246.015 123.666 0 223.905-110.148 223.905-246.015zM166.942 369.98c4.304 9.484 8.195 18.556 11.661 27.214H129.341c-13.839-37.162-34.573-72.599-62.226-106.281 0.851-3.48 2.59-8.66 5.181-15.568 5.193-14.715 9.509-26.389 12.976-34.998 2.59 2.578 6.03 6.908 10.36 12.939 4.317 5.205 7.345 9.07 9.071 11.674v-107.598c0-37.162 20.309-55.744 60.938-55.744h128.343c38.89 0 61.35 10.387 67.406 31.105 5.18 16.418 9.071 32.422 11.662 47.988-10.373 2.578-23.324 7.32-38.89 14.252-0.863-12.963-3.028-25.488-6.481-37.602-1.74-12.963-12.538-19.432-32.408-19.432h-117.97c-19.883 0-29.818 10.361-29.818 31.107v23.322h89.453c2.59-7.783 3.892-14.689 3.892-20.721 27.653 0 46.672 0.412 57.033 1.289 25.926 1.701 39.74 20.721 41.492 57.033 0.851 20.746 1.727 51.852 2.59 93.346 0.851 20.746 1.301 36.285 1.301 46.672H166.942z m114.078-158.16c-2.59 0-6.056 0.438-10.373 1.287h-11.674V303.85H130.63c0.863 1.729 2.603 4.742 5.193 9.072 5.181 7.783 8.633 13.814 10.374 18.143h151.667c-0.864-41.467-1.289-74.324-1.289-98.5-0.878-13.838-6.058-20.745-15.555-20.745z m-66.117 15.539h-67.419v41.492h67.419v-41.492z"  horiz-adv-x="1108" />

    
    <glyph glyph-name="weixin1" unicode="&#58899;" d="M670.312 527.86c10.263 0 20.418-0.74 30.49-1.862-27.396 127.574-163.785 222.358-319.469 222.358-174.049 0-316.622-118.624-316.622-269.27 0-86.985 47.433-158.368 126.699-213.766l-31.668-95.25 110.687 55.508c39.605-7.828 71.382-15.902 110.905-15.902 9.937 0 19.79 0.492 29.562 1.258-6.186 21.158-9.772 43.328-9.772 66.347-0.002 138.332 118.786 250.578 269.188 250.578z m-170.246 85.862c23.84 0 39.632-15.683 39.632-39.497 0-23.758-15.793-39.632-39.632-39.632-23.73 0-47.543 15.875-47.543 39.632 0 23.812 23.813 39.497 47.543 39.497z m-221.592-79.13c-23.73 0-47.68 15.875-47.68 39.632 0 23.813 23.95 39.497 47.68 39.497s39.523-15.684 39.523-39.497c0-23.757-15.793-39.632-39.523-39.632zM959.29 281.087c0 126.588-126.671 229.775-268.943 229.775-150.648 0-269.3-103.187-269.3-229.775 0-126.809 118.652-229.777 269.3-229.777 31.53 0 63.336 7.964 95.003 15.902l86.847-47.57-23.813 79.129c63.556 47.68 110.906 110.906 110.906 182.316z m-356.256 39.631c-15.765 0-31.667 15.657-31.667 31.667 0 15.794 15.902 31.669 31.667 31.669 23.95 0 39.633-15.876 39.633-31.669 0-16.01-15.683-31.667-39.633-31.667z m174.16 0c-15.657 0-31.449 15.657-31.449 31.667 0 15.794 15.793 31.669 31.449 31.669 23.73 0 39.631-15.876 39.631-31.669 0-16.01-15.902-31.667-39.631-31.667z"  horiz-adv-x="1024" />

    
    <glyph glyph-name="wodedingdan" unicode="&#59152;" d="M25.6 896v-1024h931.84V896H25.6z m537.6-752.64h-358.4V230.4h358.4v-87.04z m215.04 240.64H204.8V476.16h578.56V384z m0 245.76H204.8V716.8h578.56v-87.04z"  horiz-adv-x="1024" />

    
    <glyph glyph-name="qq1" unicode="&#59025;" d="M856.405333 183.7056c-12.288-15.36-44.612267 3.072-69.256533 53.896533-6.144-23.108267-21.504-60.040533-56.9344-106.222933 58.504533-13.858133 73.864533-70.792533 55.3984-101.5808-13.824-21.538133-44.612267-40.004267-98.474667-40.004267-96.9728 0-138.5472 26.146133-158.549333 44.6464-3.072 4.608-9.216 6.144-16.930133 6.144-7.68 0-12.288-1.536-16.930134-6.144-18.432-18.500267-61.5424-44.6464-158.5152-44.6464-53.8624 0-86.186667 18.466133-98.5088 40.004267-20.002133 30.788267-3.072 87.722667 55.3984 101.5808-33.860267 46.1824-49.2544 83.114667-56.9344 106.222933-23.074133-50.7904-56.9344-70.826667-69.290666-53.896533-9.216 13.858133-13.824 43.1104-12.288 63.146667 6.144 76.936533 56.9344 141.550933 87.722666 175.445333-4.608 9.216-13.858133 66.1504 24.644267 104.6528v3.072c0 152.3712 107.7248 261.632 244.736 261.632 135.406933 0 244.701867-109.2608 244.701867-261.632v-3.072c38.468267-38.5024 29.218133-95.4368 24.610133-104.686933 29.252267-33.860267 81.578667-98.474667 87.722667-175.445334 1.536-20.002133-1.536-49.2544-12.288-63.112533z"  horiz-adv-x="1024" />

    
    <glyph glyph-name="sousuo1" unicode="&#58970;" d="M926.72 25.6L768 181.333333a375.04 375.04 0 0 1-19.626667 517.973334 394.24 394.24 0 0 1-549.12 0 375.04 375.04 0 0 1 0-538.453334A395.093333 395.093333 0 0 1 708.266667 128l160.426666-157.44A42.666667 42.666667 0 0 1 896-42.666667a42.666667 42.666667 0 0 1 29.013333 11.52 40.106667 40.106667 0 0 1 1.706667 56.746667z m-759.466667 404.48a303.786667 303.786667 0 0 0 306.773334 298.666667 303.786667 303.786667 0 0 0 306.346666-298.666667 303.786667 303.786667 0 0 0-306.346666-298.666667 303.786667 303.786667 0 0 0-306.773334 298.666667z"  horiz-adv-x="1024" />

    
    <glyph glyph-name="zhekou" unicode="&#59220;" d="M160.768 831.488c-52.736 0-96.256-43.008-96.256-96.256v-224.256c0-52.736 30.72-126.464 68.096-163.84l382.464-382.464c37.376-37.376 98.304-37.376 135.68 0l280.576 280.576c37.376 37.376 37.376 98.304 0 135.68l-382.464 382.464c-37.376 37.376-111.104 68.096-163.84 68.096H160.768zM288.256 512C235.52 512 192.512 554.496 192.512 607.744c0 52.736 43.008 95.744 95.744 95.744C341.504 703.488 384 660.48 384 607.744 384 554.496 341.504 512 288.256 512z"  horiz-adv-x="1024" />

    
    <glyph glyph-name="lingdang" unicode="&#58909;" d="M512 640c117.632 0 213.333333-95.701333 213.333333-213.333333v-149.333334c0-13.845333 4.501333-27.328 12.8-38.4L789.333333 170.666667H234.666667l51.2 68.266666c8.298667 11.072 12.8 24.554667 12.8 38.4v149.333334c0 117.632 95.701333 213.333333 213.333333 213.333333m0 64c-153.173333 0-277.333333-124.16-277.333333-277.333333v-149.333334l-64-85.333333v-42.666667c0-23.466667 19.2-42.666667 42.666666-42.666666h597.333334c23.466667 0 42.666667 19.2 42.666666 42.666666v42.666667l-64 85.333333v149.333334c0 153.173333-124.16 277.333333-277.333333 277.333333zM512 42.666667a64 64 0 0 0-64 64h-64c0-70.570667 57.429333-128 128-128s128 57.429333 128 128h-64a64 64 0 0 0-64-64zM512 640a42.666667 42.666667 0 1 0-0.021333 85.312A42.666667 42.666667 0 0 0 512 640h97.621333A105.962667 105.962667 0 0 1 618.666667 682.666667c0 58.816-47.850667 106.666667-106.666667 106.666666s-106.666667-47.850667-106.666667-106.666666c0-15.189333 3.306667-29.568 9.045334-42.666667H512z"  horiz-adv-x="1024" />

    
    <glyph glyph-name="jiaotong" unicode="&#59105;" d="M937.984 312.32v-198.4A127.104 127.104 0 0 0 832-11.52v-30.08a54.272 54.272 0 0 0-54.144-54.4h-1.664a54.272 54.272 0 0 0-54.208 54.4v27.52H302.016v-27.52a54.272 54.272 0 0 0-54.208-54.4h-1.664A54.272 54.272 0 0 0 192-41.6v30.08a127.104 127.104 0 0 0-105.984 125.44v198.4A53.632 53.632 0 0 0 32 366.08V483.84a54.208 54.208 0 0 0 54.016 54.4V736a128 128 0 0 0 128 128h595.968a128 128 0 0 0 128-128v-197.76a54.208 54.208 0 0 0 54.016-54.4v-117.76a53.632 53.632 0 0 0-54.016-53.76zM158.016 147.84a72.256 72.256 0 1 1 72 65.92 69.056 69.056 0 0 1-72-65.92z m656 604.16H209.984V352h604.032V752z m-20.032-538.24a66.176 66.176 0 1 1 72-65.92 69.12 69.12 0 0 1-72 65.92z"  horiz-adv-x="1024" />

    
    <glyph glyph-name="fenxiang" unicode="&#59374;" d="M474.112 736.256H179.2c-41.472 0-77.824 3.072-77.824-38.912v-590.848c0-41.472 33.28-75.776 74.752-75.776h596.48c40.96 0 74.752 33.792 74.752 75.776v151.04h99.328v-251.904c0-41.472-33.28-75.776-74.752-75.776H75.776c-40.96 0-74.752 33.792-74.752 75.776V761.344c0 41.984 33.28 75.776 74.752 75.776H473.6l0.512-100.864zM192 242.688s30.208 399.872 509.44 396.288V836.608l319.488-297.984L701.44 240.64V437.248S398.336 488.96 192 242.688z"  horiz-adv-x="1024" />

    
    <glyph glyph-name="aixin" unicode="&#58910;" d="M797.97369512 681.15566787c-19.0870552 0-37.66071016-3.63372802-55.60687712-10.92970655-17.98039396-7.30168303-34.02698212-18.0260292-48.16828769-32.23008348L590.37772952 533.86703721l-103.82080078 104.12884063c-14.15841904 14.20405428-30.19359893 24.92840118-48.18540115 32.23008348a146.33028487 146.33028487 0 0 1-55.60687787 10.92970655c-26.76523057 0-51.3798874-6.56010588-73.82685701-19.72024765-22.47549209-13.13732453-40.23341219-30.97510683-53.35362395-53.50764387-13.10880204-22.54394531-19.65749893-47.22135087-19.65749892-74.06073914a148.31542969 148.31542969 0 0 1 10.88977581-55.81794131c7.28456954-18.0260292 18.00321123-34.11254883 32.14451678-48.31089932l311.41676709-312.39793018 311.39394913 312.39793018c14.12989657 14.20405428 24.83712997 30.28487014 32.09888154 48.31089932a147.66512374 147.66512374 0 0 1 10.92400206 55.81794131c0 26.83938828-6.57151414 51.51679384-19.66890792 74.06073914-13.08598478 22.53253632-30.86672286 40.37031936-53.36503293 53.50764387-22.43556063 13.16584627-47.0274002 19.72024765-73.81544803 19.72024765h0.02281726z m1e-8 73.63290635c39.9595993 0 76.8102791-9.89720304 110.57485733-29.64026796 33.74176026-19.77729188 60.4328331-46.55393144 80.10744551-80.39266739 19.68031691-33.83303145 29.520475-70.79209519 29.55470198-110.88860166 0-28.77889786-5.52760164-56.72494736-16.48583069-83.84955751-11.01527254-27.09608841-27.01052168-51.22586748-48.0599037-72.34370344L590.38343402 13.211425780000013l-363.3157585 364.46235048C206.05251975 398.76308975 190.04015784 422.90427782 179.03058978 450.0174797 168.0609525 477.17061232 162.54475911 505.10525284 162.54475911 533.8727417c0 40.067984 9.84015809 77.02704774 29.55470126 110.88289717C211.77407279 678.63430557 238.48796361 705.40524063 272.20690589 725.14830626 305.97148411 744.89137118 342.78793693 754.76575624 382.77035422 754.78857422c28.86446455 0 56.71353837-5.4762619 83.57004013-16.41737746 26.83938828-10.91829757 50.90641935-27.03904343 72.09270782-48.3337166l51.90469589-52.04160232 51.89899141 52.04160233c21.03797303 21.11783525 45.06507264 37.16442412 72.12693478 48.19110566C741.3913587 749.25526809 769.25184223 754.78857422 797.92805989 754.78857422h0.04563523z"  horiz-adv-x="1181" />

    
    <glyph glyph-name="qian" unicode="&#58964;" d="M844 831.8L602.9 421.7h190v-90.6H571.5v-124.9h221.3v-91.7H571.5v-181.8H457.7V114.5H228.2v91.7h229.5V331.1H228.2v90.6H424L185.2 831.8h128.4C425.1 628.1 492.9 499 516.9 444.3h2.3c8.1 22.5 30.4 67.8 66.8 135.9L722.5 831.8H844z"  horiz-adv-x="1024" />

    
    <glyph glyph-name="daipingjia" unicode="&#59049;" d="M512-32a31.912 31.912 0 0 0-22.624 9.376l-96 96c-12.512 12.512-12.512 32.736 0 45.248s32.736 12.512 45.248 0L512 45.248l73.376 73.376C591.36 124.64 599.488 128 608 128h224c17.664 0 32 14.336 32 32V672c0 17.632-14.336 32-32 32H192c-17.632 0-32-14.368-32-32v-512c0-17.664 14.368-32 32-32h96c17.664 0 32-14.304 32-32s-14.336-32-32-32h-96c-52.928 0-96 43.072-96 96V672c0 52.928 43.072 96 96 96h640c52.928 0 96-43.072 96-96v-512c0-52.928-43.072-96-96-96H621.248l-86.624-86.624A31.912 31.912 0 0 0 512-32zM336 384c-26.464 0-48 21.536-48 48s21.536 48 48 48 48-21.536 48-48-21.536-48-48-48zM528 384c-26.464 0-48 21.536-48 48s21.536 48 48 48 48-21.536 48-48-21.536-48-48-48zM720 384c-26.464 0-48 21.536-48 48s21.536 48 48 48 48-21.536 48-48-21.536-48-48-48z"  horiz-adv-x="1024" />

    
    <glyph glyph-name="dd" unicode="&#58887;" d="M268.02606186-59.64232617000005a117.44211993 117.44211993 0 0 0-117.28124029 117.2812403L150.74482157 667.69441921A117.44211993 117.44211993 0 0 0 268.02606186 784.97565951l488.02831609 0a117.44211993 117.44211993 0 0 0 117.2812403-117.2812403l0-609.97506528a117.44211993 117.44211993 0 0 0-117.2812403-117.28124029z m0 792.97562884a65.79976308 65.79976308 0 0 1-65.71932328-65.71932326l0-609.97506528a65.79976308 65.79976308 0 0 1 65.71932328-65.71932326l488.02831609 0a65.79976308 65.79976308 0 0 1 65.71932328 65.71932326L821.77370123 667.69441921a65.79976308 65.79976308 0 0 1-65.71932328 65.71932326zM318.94446042 336.84548826a25.82117841 25.82117841 0 1 0 0 51.56191701l386.11107916 0a25.82117841 25.82117841 0 1 0 0-51.56191701zM318.94446042 214.89873909000005a25.82117841 25.82117841 0 1 0 0 51.24015778l263.44037172 0a25.82117841 25.82117841 0 1 0 0-51.64235683zM318.94446042 459.19443646a25.82117841 25.82117841 0 1 0 0 51.64235684l386.11107916 0a25.82117841 25.82117841 0 1 0 0-51.64235684z"  horiz-adv-x="1024" />

    
    <glyph glyph-name="star" unicode="&#58931;" d="M985.40660064-126.833122c-14.910104 0-31.765004 4.278552-47.323373 12.057736l-222.225373 111.112687L492.20629664-114.51607999999999c-14.132185-7.519878-30.33882-11.539124-46.934413-11.539124-21.522411-0.129653-42.396556 6.74196-59.640416 19.577615-31.246391 23.467207-47.323373 64.178273-39.933147 101.1294l45.767536 237.26513L216.04524364 395.409471c-27.097493 27.486452-37.469739 67.289947-27.227146 104.370727l0.388959 1.166877c12.706002 38.247658 44.341352 64.956191 82.718663 70.142315L515.54385064 615.430742l109.297544 222.09572c17.503165 35.135984 53.287415 57.695619 91.01646 57.69562 39.414535 0 76.106356-23.467207 91.405419-58.343885l108.908584-221.447455 243.618131-42.655862c38.636617-5.575082 70.401621-33.320841 81.162826-70.920233 12.057736-36.951127 2.204102-77.402887-25.412003-104.759686l-0.648265-0.648266-174.772347-164.659407 44.211699-237.65409c7.130919-37.988351-8.038491-76.365662-39.414536-100.351481-16.8549-13.48392-37.858698-20.744492-59.510762-20.614839z m-269.548746 187.996961l248.026335-124.077994c7.260572-3.630286 15.688022-5.964042 21.392758-5.964042 8.816409 0 17.114206 2.722715 23.078248 7.779185l1.166877 0.907571c14.132185 10.631552 21.003798 27.356799 17.892125 43.82274l-49.916435 268.900481 197.461636 185.922512c12.057736 12.317042 16.206635 29.820208 10.890859 46.026842l-0.518613 1.68549c-4.408205 15.688022-17.632818 27.227146-33.709799 29.431249l-1.166878 0.129653L877.27593464 563.439858 754.36481764 813.151684c-5.964042 14.002532-22.170676 24.115472-38.506963 24.115472-16.076982 0-31.376045-10.11294-39.284883-25.541656L554.43977364 563.5695109999999 279.83455764 513.6530769999999c-16.725247-2.074449-29.690555-13.224614-35.654596-30.468473-4.278552-15.817675 0.777918-34.747025 12.446695-46.675108l197.591289-184.237022-51.861231-269.030134c-3.111674-15.558369 4.278552-33.450494 17.892125-43.693087 6.871613-5.186123 15.688022-7.908838 25.023044-7.908838 7.130919 0 14.002532 1.68549 19.966573 4.797164l0.907572 0.518612 249.711826 124.207648z m0 0"  horiz-adv-x="1427" />

    
    <glyph glyph-name="kejian" unicode="&#59999;" d="M511.058558 655.862781c-279.102672 0-447.729208-284.918122-447.729207-284.918121S258.121825 94.748177 511.058558 94.748177c252.941849 0 447.733301 276.196483 447.733301 276.196483S790.166347 655.862781 511.058558 655.862781z m287.829428-389.582903c-93.03286-78.499865-191.886285-127.924531-290.734594-127.924531-98.848309 0-197.696618 46.518476-290.734594 127.924531-31.980365 29.071106-63.962777 58.145281-90.127693 90.12667-5.815449 5.815449-8.720615 11.627828-14.537088 17.444301 2.905166 5.815449 8.720615 11.631922 11.631921 17.443278 23.254633 31.980365 52.329832 63.961754 84.311221 93.036953 90.12667 81.406055 188.974979 130.829697 299.456233 130.829697 110.48023 0 209.328539-49.423643 299.455209-130.829697 31.982412-29.076222 58.147328-61.056588 84.316338-93.036953 2.905166-5.811356 8.720615-11.626805 11.626805-17.443278-2.90619-5.815449-8.721639-11.627828-14.538111-17.444301-26.163893-29.074176-55.240115-61.055564-90.125647-90.12667zM508.153392 545.382551c-87.221504 0-154.089447-69.774133-154.089447-154.089448 0-87.221504 69.777203-154.089447 154.089447-154.089447 87.220481 0 154.088424 69.778226 154.088424 154.089447 0 84.315314-69.77311 154.089447-154.088424 154.089448z m0-267.475868c-61.051471 0-110.481254 49.424666-110.481254 110.480231 0 61.052494 49.429783 110.481254 110.481254 110.481253 61.055564 0 110.48023-49.429783 110.48023-110.481253 0-58.145281-49.424666-110.48023-110.48023-110.480231z"  horiz-adv-x="1024" />

    
    <glyph glyph-name="juan" unicode="&#58911;" d="M899.7 660c0.1-0.1 0.3-0.4 0.3-0.7v-110.1c-65.6-27.7-111.5-93.3-111.5-168.2S834.4 240.5 900 212.8v-110.1c0-0.4-0.2-0.6-0.2-0.7l-775.4-0.1s-0.4 0.3-0.4 0.8V212.8c65.6 27.7 111.5 93.3 111.5 168.2 0 74.9-45.9 140.5-111.5 168.2V659.3c0 0.4 0.2 0.6 0.2 0.7h775.5m0.3 60H124c-33 0-60-27.3-60-60.7v-156.5c62.4-4.8 111.5-57.5 111.5-121.8S126.4 264 64 259.2v-156.5c0-33.4 27-60.7 60-60.7h776c33 0 60 27.3 60 60.7V259.2C897.6 264 848.5 316.7 848.5 381S897.6 498 960 502.8V659.3c0 33.4-27 60.7-60 60.7zM348.5 584.6c-16.6 0-30 13.6-30 30.4v60.7c0 16.8 13.4 30.4 30 30.4s30-13.6 30-30.4V615c0-16.8-13.4-30.4-30-30.4zM348.5 200.1c-16.6 0-30 13.6-30 30.4v96.1c0 16.8 13.4 30.4 30 30.4s30-13.6 30-30.4v-96.1c0-16.9-13.4-30.4-30-30.4z m0 192.2c-16.6 0-30 13.6-30 30.4v96.1c0 16.8 13.4 30.4 30 30.4s30-13.6 30-30.4v-96.1c0-16.8-13.4-30.4-30-30.4zM348.5 43.2c-16.6 0-30 13.6-30 30.4v60.7c0 16.8 13.4 30.4 30 30.4s30-13.6 30-30.4v-60.7c0-16.8-13.4-30.4-30-30.4zM788 597.5a30.4 30 90 1 1 60 0 30.4 30 90 1 1-60 0Z"  horiz-adv-x="1024" />

    
    <glyph glyph-name="dianhua2" unicode="&#58912;" d="M512-128C229.234-128 0 101.234 0 384S229.234 896 512 896s512-229.234 512-512-229.234-512-512-512z m267.662 361.671a22.044 22.044 0 0 1-1.11 8.363c-1.421 4.778-10.609 11.833-27.59 21.106a781.625 781.625 0 0 1-19.627 11.975c-8.448 5.063-16.1 9.67-23.04 13.937-6.912 4.239-13.369 8.363-19.456 12.288-0.995 0.854-3.982 3.13-9.102 7.026a95.972 95.972 0 0 1-12.885 8.534 21.447 21.447 0 0 1-10.354 2.787c-4.836 0-10.923-3.755-18.148-11.32-7.31-7.567-13.938-15.816-19.968-24.69a237.198 237.198 0 0 0-19.285-24.747c-6.77-7.538-12.345-11.293-16.697-11.293a22.87 22.87 0 0 0-8.164 1.963 64.597 64.597 0 0 0-7.452 3.385 146.318 146.318 0 0 0-8.704 5.603c-4.124 2.76-6.428 4.296-6.912 4.552-33.166 20.224-61.64 43.235-85.362 69.319-23.75 26.026-44.828 57.23-63.203 93.582a193.308 193.308 0 0 1-4.153 7.566 138.752 138.752 0 0 0-5.12 9.586 99.385 99.385 0 0 0-3.1 8.163 29.582 29.582 0 0 0-1.821 8.96c0 4.78 3.499 10.866 10.382 18.319a225.564 225.564 0 0 0 22.5 21.077c8.135 6.628 15.644 13.938 22.556 21.902 6.884 7.965 10.354 14.62 10.354 19.94a28.16 28.16 0 0 1-2.56 11.378 115.57 115.57 0 0 1-7.794 14.165 451.783 451.783 0 0 1-6.371 9.955c-3.613 6.628-7.396 13.71-11.236 21.277a1630.948 1630.948 0 0 0-12.715 25.315c-4.636 9.273-8.249 16.413-10.922 21.504-8.477 18.575-14.905 28.644-19.229 30.237a18.432 18.432 0 0 1-7.623 1.195c-6.542 0-15.075-1.366-25.628-3.983-10.553-2.645-18.859-5.433-24.918-8.362-12.089-5.547-24.889-21.76-38.485-48.583-12.373-24.975-18.517-49.636-18.517-74.098 0-7.168 0.398-14.137 1.28-20.907 0.853-6.77 2.332-14.421 4.55-22.898 2.134-8.476 3.898-14.79 5.235-18.887 1.336-4.124 3.811-11.491 7.452-22.158 3.64-10.581 5.774-17.124 6.485-19.513 8.477-26.027 18.518-49.266 30.151-69.689 19.115-33.962 45.227-69.091 78.28-105.33 33.024-36.21 65.08-64.91 96.056-85.845 18.688-12.8 39.88-23.723 63.602-32.995 2.219-0.854 8.164-3.215 17.806-7.197 9.672-4.01 16.413-6.798 20.14-8.22 3.754-1.423 9.5-3.414 17.265-5.775 7.737-2.389 14.677-4.01 20.907-4.949 6.2-0.967 12.544-1.394 19.057-1.394 22.3 0 44.857 6.77 67.613 20.338 24.405 14.848 39.225 28.871 44.316 42.183a167.538 167.538 0 0 1 7.623 27.307c2.475 11.577 3.67 20.907 3.67 28.046z"  horiz-adv-x="1024" />

    
    <glyph glyph-name="xiaoxi1" unicode="&#58889;" d="M907.5 886h-791C66 886 25 845.1 25 794.5v-651C25 93 66 52 116.5 52l168.4-1.4-1.2-134.4c-0.3-34.6 41.5-52.3 66.1-27.9L503 40.2c7.7 7.6 18.1 11.9 28.9 11.9h375.6c50.5 0 91.5 41 91.5 91.5v651c0 50.5-41 91.4-91.5 91.4z m34-723c0-28.1-22.8-50.9-50.9-50.9H503.8c-8.2 0-16-3.2-21.8-9L340.9-36.4l-0.5 118c-0.1 16.9-13.8 30.6-30.8 30.6H138.3c-31.3 0-56.6 25.3-56.6 56.6V754.7c0 39.5 32.1 71.6 71.6 71.6h723.8c35.6 0 64.4-28.8 64.4-64.4V163zM282.9 482.1m-58.4 0a58.4 58.4 0 1 1 116.8 0 58.4 58.4 0 1 1-116.8 0ZM513 482.1m-58.4 0a58.4 58.4 0 1 1 116.8 0 58.4 58.4 0 1 1-116.8 0ZM744.5 482.1m-58.4 0a58.4 58.4 0 1 1 116.8 0 58.4 58.4 0 1 1-116.8 0Z"  horiz-adv-x="1024" />

    
    <glyph glyph-name="jiantou-up" unicode="&#58903;" d="M148.409 196.61300000000006l317.444 413.412c22.06 28.734 69.89 28.734 91.951 0l317.444-413.412c20.453-26.633-5.128-59.94100001-46.038-59.94199999l-634.826-1e-8c-40.847 0-66.43 33.308-45.976 59.941z"  horiz-adv-x="1024" />

    
    <glyph glyph-name="jiantou-up-down" unicode="&#58904;" d="M875.591 571.387l-317.444-413.412c-22.06-28.734-69.89-28.734-91.951 0l-317.444 413.412c-20.453 26.633 5.128 59.94100001 46.038 59.94199999l634.826 1e-8c40.847 0 66.43-33.308 45.976-59.941z"  horiz-adv-x="1024" />

    
    <glyph glyph-name="ziyuangw" unicode="&#59032;" d="M1009.706667-83.626667l-181.76 181.76a427.946667 427.946667 0 1 1-30.08-30.08l181.76-181.76z m-769.28 196.053334a384 384 0 1 0 543.146666 0 384 384 0 0 0-543.146666 0z"  horiz-adv-x="1024" />

    
    <glyph glyph-name="qinziAPPtubiao-" unicode="&#58891;" d="M794.053805-127.44518700000003h-1.479502c-46.357715 0.493167-92.71543 0.554813-139.13479 0.554813H582.608377c-47.344049 0-94.626452 0.061646-141.970502 0.616459a220.815604 220.815604 0 0 0-76.502558 16.151225c-41.487689 16.151225-65.159713 52.275721-64.974776 99.188249l0.184938 176.060683c0 97.462164 0.061646 194.985973 0.863042 292.448136 0.184938 26.569382 17.199205 51.351032 31.747638 64.481609 56.34435 51.474324 117.558726 115.770995 143.265065 202.445127 7.150924 24.165192 9.863344 50.796219 12.699055 78.968394C493.591701 859.443983 529.962781 896 578.539748 896c18.986936 0 38.097165-5.671423 56.714225-16.82933 37.480706-22.500753 62.50894-57.885498 76.317621-108.311842 22.130877-80.078021 10.788032-157.751851-1.602793-224.267774-1.849377-10.048281-3.945337-20.034917-6.16459-30.329781h192.643429c27.863946 0 67.810487-3.45217 92.468846-33.412077 17.938956-21.761002 22.99392-51.166095 15.411474-89.941364-23.178857-119.346457-51.53597-239.679249-78.660165-351.936428-8.445488-34.953224-22.500753-67.378966-36.062849-98.695081l-5.794715-13.438806c-15.534766-36.309434-47.405695-56.282704-89.756426-56.282704z m-140.614292 80.69448c46.665944 0 93.331889-0.061646 139.997833-0.554813l0.616459-40.069834v40.069834c12.822347 0 13.993619 2.835711 16.027933 7.644091l5.918006 13.747035c12.822347 29.528385 24.843297 57.39233 31.685991 85.687797 26.939257 111.332491 55.049786 230.617302 77.920415 348.422612 3.390524 17.260851 1.417856 23.302149 1.109626 24.103546-0.493167 0-7.459154 3.883692-30.329782 3.883691h-242.51496a40.193125 40.193125 0 0 0-39.145145 48.453675l5.979653 27.185841c3.883692 17.260851 7.459154 33.288785 10.418156 49.378364 10.788032 57.762206 20.774667 124.648004 3.205587 188.328216-8.322196 30.453073-20.774667 49.193426-40.316417 60.906147a31.007886 31.007886 0 0 1-15.47312 5.424839c-8.198904 0-10.294865-14.548432-10.788032-18.986937-3.205587-32.117512-6.411173-63.803504-15.719704-95.119619-31.25447-105.537776-101.592439-180.00602-166.197339-238.939498a24.473421 24.473421 0 0 1-5.794715-8.383842c-0.431521-94.749744-0.493167-192.02697-0.554813-289.304196l-0.184937-176.307267c-0.061646-17.384143 6.226236-21.267835 13.808681-24.226837 17.815664-6.90434 34.583348-10.603094 48.453675-10.788032 47.03582-0.493167 94.009993-0.616459 141.107459-0.616459l70.76949 0.061646zM206.814987-127.26024900000004l-4.130275 0.061646a867.789296 867.789296 0 0 1-29.466739 0.554813l-34.829932-0.246584-13.500451 0.061646c-50.672928 0.431521-76.872434 25.151526-80.078021 75.701162-7.397508 116.079225-14.548432 232.158449-21.63771 348.237674C20.582731 339.337547 18.425125 381.503341 16.267519 423.730781l-0.431522 8.815363c-1.109626 20.897959 0.123292 44.693276 17.260851 62.817169 17.199205 18.18554 41.302751 20.713021 62.570586 20.836314l47.713925 0.123292 47.652278-0.123292c59.05677-0.184938 86.674132-27.49407 86.85907-85.934381 0.184938-57.39233 0.123292-114.784661 0.123291-172.176991l-0.123291-135.436037c-0.123292-57.885498-0.246584-115.832641 0.493167-173.718138 0.123292-9.061947 0.493167-36.740955-19.295166-56.714226-12.637409-12.945638-30.20649-19.480104-52.275721-19.480103z m-1.35621 78.413581l1.35621-38.343748v39.206791c-0.431521-0.246584-0.924688-0.493167-1.35621-0.863043z m-32.240804 2.40419c6.719403 0 14.301848-0.061646 24.658359-0.369875-0.308229 59.919812-0.184938 114.784661-0.061646 169.587863l0.123292 135.374391c0 57.269039 0.061646 114.538077-0.123292 171.868761l-0.123292 5.856361a106.400819 106.400819 0 0 1-6.90434 0.184937l-47.405695 0.123292-47.344049-0.123292h-0.123292l0.369875-8.26055c2.157606-41.91921 4.315213-83.83842 6.842695-125.819276 7.027632-116.017579 14.178556-232.035157 21.576064-348.052736v-0.678105h0.801397l12.822346-0.061646 34.891578 0.369875z"  horiz-adv-x="1024" />

    


  </font>
</defs>
</svg>
